<?xml version="1.0" encoding="utf-8" standalone="no"?>
<!DOCTYPE svg PUBLIC "-//W3C//DTD SVG 1.1//EN"
  "http://www.w3.org/Graphics/SVG/1.1/DTD/svg11.dtd">
<svg xmlns:xlink="http://www.w3.org/1999/xlink" width="1080pt" height="288pt" viewBox="0 0 1080 288" xmlns="http://www.w3.org/2000/svg" version="1.1">
 <metadata>
  <rdf:RDF xmlns:dc="http://purl.org/dc/elements/1.1/" xmlns:cc="http://creativecommons.org/ns#" xmlns:rdf="http://www.w3.org/1999/02/22-rdf-syntax-ns#">
   <cc:Work>
    <dc:type rdf:resource="http://purl.org/dc/dcmitype/StillImage"/>
    <dc:date>2023-11-22T04:28:27.735490</dc:date>
    <dc:format>image/svg+xml</dc:format>
    <dc:creator>
     <cc:Agent>
      <dc:title>Matplotlib v3.7.2, https://matplotlib.org/</dc:title>
     </cc:Agent>
    </dc:creator>
   </cc:Work>
  </rdf:RDF>
 </metadata>
 <defs>
  <style type="text/css">*{stroke-linejoin: round; stroke-linecap: butt}</style>
 </defs>
 <g id="figure_1">
  <g id="patch_1">
   <path d="M 0 288 
L 1080 288 
L 1080 0 
L 0 0 
z
" style="fill: #ffffff"/>
  </g>
  <g id="axes_1">
   <g id="patch_2">
    <path d="M 67.86 233.64 
L 349.56 233.64 
L 349.56 39.48 
L 67.86 39.48 
z
" style="fill: #ffffff"/>
   </g>
   <g id="matplotlib.axis_1">
    <g id="xtick_1">
     <g id="line2d_1">
      <path d="M 80.664545 233.64 
L 80.664545 39.48 
" clip-path="url(#p2b61d4a238)" style="fill: none; stroke: #cccccc; stroke-width: 0.8; stroke-linecap: round"/>
     </g>
     <g id="line2d_2"/>
     <g id="text_1">
      <!-- 0 -->
      <g style="fill: #262626" transform="translate(75.54728 251.647656) scale(0.17 -0.17)">
       <defs>
        <path id="DejaVuSansMono-30" d="M 1509 2344 
Q 1509 2516 1629 2641 
Q 1750 2766 1919 2766 
Q 2094 2766 2219 2641 
Q 2344 2516 2344 2344 
Q 2344 2169 2220 2047 
Q 2097 1925 1919 1925 
Q 1744 1925 1626 2044 
Q 1509 2163 1509 2344 
z
M 1925 4250 
Q 1484 4250 1267 3775 
Q 1050 3300 1050 2328 
Q 1050 1359 1267 884 
Q 1484 409 1925 409 
Q 2369 409 2586 884 
Q 2803 1359 2803 2328 
Q 2803 3300 2586 3775 
Q 2369 4250 1925 4250 
z
M 1925 4750 
Q 2672 4750 3055 4137 
Q 3438 3525 3438 2328 
Q 3438 1134 3055 521 
Q 2672 -91 1925 -91 
Q 1178 -91 797 521 
Q 416 1134 416 2328 
Q 416 3525 797 4137 
Q 1178 4750 1925 4750 
z
" transform="scale(0.015625)"/>
       </defs>
       <use xlink:href="#DejaVuSansMono-30"/>
      </g>
     </g>
    </g>
    <g id="xtick_2">
     <g id="line2d_3">
      <path d="M 208.71 233.64 
L 208.71 39.48 
" clip-path="url(#p2b61d4a238)" style="fill: none; stroke: #cccccc; stroke-width: 0.8; stroke-linecap: round"/>
     </g>
     <g id="line2d_4"/>
     <g id="text_2">
      <!-- 1 -->
      <g style="fill: #262626" transform="translate(203.592734 251.647656) scale(0.17 -0.17)">
       <defs>
        <path id="DejaVuSansMono-31" d="M 844 531 
L 1825 531 
L 1825 4097 
L 769 3859 
L 769 4434 
L 1819 4666 
L 2450 4666 
L 2450 531 
L 3419 531 
L 3419 0 
L 844 0 
L 844 531 
z
" transform="scale(0.015625)"/>
       </defs>
       <use xlink:href="#DejaVuSansMono-31"/>
      </g>
     </g>
    </g>
    <g id="xtick_3">
     <g id="line2d_5">
      <path d="M 336.755455 233.64 
L 336.755455 39.48 
" clip-path="url(#p2b61d4a238)" style="fill: none; stroke: #cccccc; stroke-width: 0.8; stroke-linecap: round"/>
     </g>
     <g id="line2d_6"/>
     <g id="text_3">
      <!-- 2 -->
      <g style="fill: #262626" transform="translate(331.638189 251.647656) scale(0.17 -0.17)">
       <defs>
        <path id="DejaVuSansMono-32" d="M 1166 531 
L 3309 531 
L 3309 0 
L 475 0 
L 475 531 
Q 1059 1147 1496 1619 
Q 1934 2091 2100 2284 
Q 2413 2666 2522 2902 
Q 2631 3138 2631 3384 
Q 2631 3775 2401 3997 
Q 2172 4219 1772 4219 
Q 1488 4219 1175 4116 
Q 863 4013 513 3803 
L 513 4441 
Q 834 4594 1145 4672 
Q 1456 4750 1759 4750 
Q 2444 4750 2861 4386 
Q 3278 4022 3278 3431 
Q 3278 3131 3139 2831 
Q 3000 2531 2688 2169 
Q 2513 1966 2180 1606 
Q 1847 1247 1166 531 
z
" transform="scale(0.015625)"/>
       </defs>
       <use xlink:href="#DejaVuSansMono-32"/>
      </g>
     </g>
    </g>
    <g id="text_4">
     <!-- Iteration -->
     <g style="fill: #262626" transform="translate(162.654609 272.190781) scale(0.17 -0.17)">
      <defs>
       <path id="DejaVuSansMono-49" d="M 628 4666 
L 3219 4666 
L 3219 4134 
L 2241 4134 
L 2241 531 
L 3219 531 
L 3219 0 
L 628 0 
L 628 531 
L 1606 531 
L 1606 4134 
L 628 4134 
L 628 4666 
z
" transform="scale(0.015625)"/>
       <path id="DejaVuSansMono-74" d="M 1919 4494 
L 1919 3500 
L 3225 3500 
L 3225 3053 
L 1919 3053 
L 1919 1153 
Q 1919 766 2066 612 
Q 2213 459 2578 459 
L 3225 459 
L 3225 0 
L 2522 0 
Q 1875 0 1609 259 
Q 1344 519 1344 1153 
L 1344 3053 
L 409 3053 
L 409 3500 
L 1344 3500 
L 1344 4494 
L 1919 4494 
z
" transform="scale(0.015625)"/>
       <path id="DejaVuSansMono-65" d="M 3475 1894 
L 3475 1613 
L 984 1613 
L 984 1594 
Q 984 1022 1282 709 
Q 1581 397 2125 397 
Q 2400 397 2700 484 
Q 3000 572 3341 750 
L 3341 178 
Q 3013 44 2708 -23 
Q 2403 -91 2119 -91 
Q 1303 -91 843 398 
Q 384 888 384 1747 
Q 384 2584 834 3084 
Q 1284 3584 2034 3584 
Q 2703 3584 3089 3131 
Q 3475 2678 3475 1894 
z
M 2900 2063 
Q 2888 2569 2661 2833 
Q 2434 3097 2009 3097 
Q 1594 3097 1325 2822 
Q 1056 2547 1006 2059 
L 2900 2063 
z
" transform="scale(0.015625)"/>
       <path id="DejaVuSansMono-72" d="M 3609 2778 
Q 3425 2922 3234 2987 
Q 3044 3053 2816 3053 
Q 2278 3053 1993 2715 
Q 1709 2378 1709 1741 
L 1709 0 
L 1131 0 
L 1131 3500 
L 1709 3500 
L 1709 2816 
Q 1853 3188 2151 3386 
Q 2450 3584 2859 3584 
Q 3072 3584 3256 3531 
Q 3441 3478 3609 3366 
L 3609 2778 
z
" transform="scale(0.015625)"/>
       <path id="DejaVuSansMono-61" d="M 2194 1759 
L 2003 1759 
Q 1500 1759 1245 1582 
Q 991 1406 991 1056 
Q 991 741 1181 566 
Q 1372 391 1709 391 
Q 2184 391 2456 720 
Q 2728 1050 2731 1631 
L 2731 1759 
L 2194 1759 
z
M 3309 1997 
L 3309 0 
L 2731 0 
L 2731 519 
Q 2547 206 2267 57 
Q 1988 -91 1588 -91 
Q 1053 -91 734 211 
Q 416 513 416 1019 
Q 416 1603 808 1906 
Q 1200 2209 1959 2209 
L 2731 2209 
L 2731 2300 
Q 2728 2719 2518 2908 
Q 2309 3097 1850 3097 
Q 1556 3097 1256 3012 
Q 956 2928 672 2766 
L 672 3341 
Q 991 3463 1283 3523 
Q 1575 3584 1850 3584 
Q 2284 3584 2592 3456 
Q 2900 3328 3091 3072 
Q 3209 2916 3259 2686 
Q 3309 2456 3309 1997 
z
" transform="scale(0.015625)"/>
       <path id="DejaVuSansMono-69" d="M 800 3500 
L 2272 3500 
L 2272 447 
L 3413 447 
L 3413 0 
L 556 0 
L 556 447 
L 1697 447 
L 1697 3053 
L 800 3053 
L 800 3500 
z
M 1697 4863 
L 2272 4863 
L 2272 4134 
L 1697 4134 
L 1697 4863 
z
" transform="scale(0.015625)"/>
       <path id="DejaVuSansMono-6f" d="M 1925 3097 
Q 1488 3097 1263 2756 
Q 1038 2416 1038 1747 
Q 1038 1081 1263 739 
Q 1488 397 1925 397 
Q 2366 397 2591 739 
Q 2816 1081 2816 1747 
Q 2816 2416 2591 2756 
Q 2366 3097 1925 3097 
z
M 1925 3584 
Q 2653 3584 3039 3112 
Q 3425 2641 3425 1747 
Q 3425 850 3040 379 
Q 2656 -91 1925 -91 
Q 1197 -91 812 379 
Q 428 850 428 1747 
Q 428 2641 812 3112 
Q 1197 3584 1925 3584 
z
" transform="scale(0.015625)"/>
       <path id="DejaVuSansMono-6e" d="M 3284 2169 
L 3284 0 
L 2706 0 
L 2706 2169 
Q 2706 2641 2540 2862 
Q 2375 3084 2022 3084 
Q 1619 3084 1401 2798 
Q 1184 2513 1184 1978 
L 1184 0 
L 609 0 
L 609 3500 
L 1184 3500 
L 1184 2975 
Q 1338 3275 1600 3429 
Q 1863 3584 2222 3584 
Q 2756 3584 3020 3232 
Q 3284 2881 3284 2169 
z
" transform="scale(0.015625)"/>
      </defs>
      <use xlink:href="#DejaVuSansMono-49"/>
      <use xlink:href="#DejaVuSansMono-74" x="60.205078"/>
      <use xlink:href="#DejaVuSansMono-65" x="120.410156"/>
      <use xlink:href="#DejaVuSansMono-72" x="180.615234"/>
      <use xlink:href="#DejaVuSansMono-61" x="240.820312"/>
      <use xlink:href="#DejaVuSansMono-74" x="301.025391"/>
      <use xlink:href="#DejaVuSansMono-69" x="361.230469"/>
      <use xlink:href="#DejaVuSansMono-6f" x="421.435547"/>
      <use xlink:href="#DejaVuSansMono-6e" x="481.640625"/>
     </g>
    </g>
   </g>
   <g id="matplotlib.axis_2">
    <g id="ytick_1">
     <g id="line2d_7">
      <path d="M 67.86 232.747538 
L 349.56 232.747538 
" clip-path="url(#p2b61d4a238)" style="fill: none; stroke: #cccccc; stroke-width: 0.8; stroke-linecap: round"/>
     </g>
     <g id="line2d_8"/>
     <g id="text_5">
      <!-- 0.1 -->
      <g style="fill: #262626" transform="translate(32.156406 239.251366) scale(0.17 -0.17)">
       <defs>
        <path id="DejaVuSansMono-2e" d="M 1528 953 
L 2316 953 
L 2316 0 
L 1528 0 
L 1528 953 
z
" transform="scale(0.015625)"/>
       </defs>
       <use xlink:href="#DejaVuSansMono-30"/>
       <use xlink:href="#DejaVuSansMono-2e" x="60.205078"/>
       <use xlink:href="#DejaVuSansMono-31" x="120.410156"/>
      </g>
     </g>
    </g>
    <g id="ytick_2">
     <g id="line2d_9">
      <path d="M 67.86 183.166333 
L 349.56 183.166333 
" clip-path="url(#p2b61d4a238)" style="fill: none; stroke: #cccccc; stroke-width: 0.8; stroke-linecap: round"/>
     </g>
     <g id="line2d_10"/>
     <g id="text_6">
      <!-- 0.2 -->
      <g style="fill: #262626" transform="translate(32.156406 189.670161) scale(0.17 -0.17)">
       <use xlink:href="#DejaVuSansMono-30"/>
       <use xlink:href="#DejaVuSansMono-2e" x="60.205078"/>
       <use xlink:href="#DejaVuSansMono-32" x="120.410156"/>
      </g>
     </g>
    </g>
    <g id="ytick_3">
     <g id="line2d_11">
      <path d="M 67.86 133.585128 
L 349.56 133.585128 
" clip-path="url(#p2b61d4a238)" style="fill: none; stroke: #cccccc; stroke-width: 0.8; stroke-linecap: round"/>
     </g>
     <g id="line2d_12"/>
     <g id="text_7">
      <!-- 0.3 -->
      <g style="fill: #262626" transform="translate(32.156406 140.088956) scale(0.17 -0.17)">
       <defs>
        <path id="DejaVuSansMono-33" d="M 2425 2497 
Q 2884 2375 3128 2064 
Q 3372 1753 3372 1288 
Q 3372 644 2939 276 
Q 2506 -91 1741 -91 
Q 1419 -91 1084 -31 
Q 750 28 428 141 
L 428 769 
Q 747 603 1056 522 
Q 1366 441 1672 441 
Q 2191 441 2469 675 
Q 2747 909 2747 1350 
Q 2747 1756 2469 1995 
Q 2191 2234 1716 2234 
L 1234 2234 
L 1234 2753 
L 1716 2753 
Q 2150 2753 2394 2943 
Q 2638 3134 2638 3475 
Q 2638 3834 2411 4026 
Q 2184 4219 1766 4219 
Q 1488 4219 1191 4156 
Q 894 4094 569 3969 
L 569 4550 
Q 947 4650 1242 4700 
Q 1538 4750 1766 4750 
Q 2447 4750 2855 4408 
Q 3263 4066 3263 3500 
Q 3263 3116 3048 2859 
Q 2834 2603 2425 2497 
z
" transform="scale(0.015625)"/>
       </defs>
       <use xlink:href="#DejaVuSansMono-30"/>
       <use xlink:href="#DejaVuSansMono-2e" x="60.205078"/>
       <use xlink:href="#DejaVuSansMono-33" x="120.410156"/>
      </g>
     </g>
    </g>
    <g id="ytick_4">
     <g id="line2d_13">
      <path d="M 67.86 84.003922 
L 349.56 84.003922 
" clip-path="url(#p2b61d4a238)" style="fill: none; stroke: #cccccc; stroke-width: 0.8; stroke-linecap: round"/>
     </g>
     <g id="line2d_14"/>
     <g id="text_8">
      <!-- 0.4 -->
      <g style="fill: #262626" transform="translate(32.156406 90.50775) scale(0.17 -0.17)">
       <defs>
        <path id="DejaVuSansMono-34" d="M 2297 4091 
L 825 1625 
L 2297 1625 
L 2297 4091 
z
M 2194 4666 
L 2925 4666 
L 2925 1625 
L 3547 1625 
L 3547 1113 
L 2925 1113 
L 2925 0 
L 2297 0 
L 2297 1113 
L 319 1113 
L 319 1709 
L 2194 4666 
z
" transform="scale(0.015625)"/>
       </defs>
       <use xlink:href="#DejaVuSansMono-30"/>
       <use xlink:href="#DejaVuSansMono-2e" x="60.205078"/>
       <use xlink:href="#DejaVuSansMono-34" x="120.410156"/>
      </g>
     </g>
    </g>
    <g id="text_9">
     <!-- Harmful Rate -->
     <g style="fill: #262626" transform="translate(24.620937 197.967188) rotate(-90) scale(0.17 -0.17)">
      <defs>
       <path id="DejaVuSansMono-48" d="M 428 4666 
L 1063 4666 
L 1063 2753 
L 2791 2753 
L 2791 4666 
L 3425 4666 
L 3425 0 
L 2791 0 
L 2791 2222 
L 1063 2222 
L 1063 0 
L 428 0 
L 428 4666 
z
" transform="scale(0.015625)"/>
       <path id="DejaVuSansMono-6d" d="M 2113 3144 
Q 2219 3369 2383 3476 
Q 2547 3584 2778 3584 
Q 3200 3584 3373 3257 
Q 3547 2931 3547 2028 
L 3547 0 
L 3022 0 
L 3022 2003 
Q 3022 2744 2939 2923 
Q 2856 3103 2638 3103 
Q 2388 3103 2295 2911 
Q 2203 2719 2203 2003 
L 2203 0 
L 1678 0 
L 1678 2003 
Q 1678 2753 1589 2928 
Q 1500 3103 1269 3103 
Q 1041 3103 952 2911 
Q 863 2719 863 2003 
L 863 0 
L 341 0 
L 341 3500 
L 863 3500 
L 863 3200 
Q 966 3388 1120 3486 
Q 1275 3584 1472 3584 
Q 1709 3584 1867 3475 
Q 2025 3366 2113 3144 
z
" transform="scale(0.015625)"/>
       <path id="DejaVuSansMono-66" d="M 3322 4863 
L 3322 4384 
L 2669 4384 
Q 2359 4384 2239 4257 
Q 2119 4131 2119 3809 
L 2119 3500 
L 3322 3500 
L 3322 3053 
L 2119 3053 
L 2119 0 
L 1544 0 
L 1544 3053 
L 609 3053 
L 609 3500 
L 1544 3500 
L 1544 3744 
Q 1544 4319 1808 4591 
Q 2072 4863 2631 4863 
L 3322 4863 
z
" transform="scale(0.015625)"/>
       <path id="DejaVuSansMono-75" d="M 609 1325 
L 609 3494 
L 1184 3494 
L 1184 1325 
Q 1184 853 1351 631 
Q 1519 409 1869 409 
Q 2275 409 2490 695 
Q 2706 981 2706 1516 
L 2706 3494 
L 3284 3494 
L 3284 0 
L 2706 0 
L 2706 525 
Q 2553 222 2289 65 
Q 2025 -91 1672 -91 
Q 1134 -91 871 261 
Q 609 613 609 1325 
z
" transform="scale(0.015625)"/>
       <path id="DejaVuSansMono-6c" d="M 1997 1269 
Q 1997 881 2139 684 
Q 2281 488 2559 488 
L 3231 488 
L 3231 0 
L 2503 0 
Q 1988 0 1705 331 
Q 1422 663 1422 1269 
L 1422 4447 
L 500 4447 
L 500 4897 
L 1997 4897 
L 1997 1269 
z
" transform="scale(0.015625)"/>
       <path id="DejaVuSansMono-20" transform="scale(0.015625)"/>
       <path id="DejaVuSansMono-52" d="M 2375 2203 
Q 2619 2141 2791 1967 
Q 2963 1794 3219 1275 
L 3853 0 
L 3175 0 
L 2619 1178 
Q 2378 1681 2186 1826 
Q 1994 1972 1684 1972 
L 1081 1972 
L 1081 0 
L 447 0 
L 447 4666 
L 1747 4666 
Q 2516 4666 2925 4319 
Q 3334 3972 3334 3316 
Q 3334 2853 3082 2561 
Q 2831 2269 2375 2203 
z
M 1081 4147 
L 1081 2491 
L 1772 2491 
Q 2225 2491 2447 2694 
Q 2669 2897 2669 3316 
Q 2669 3719 2433 3933 
Q 2197 4147 1747 4147 
L 1081 4147 
z
" transform="scale(0.015625)"/>
      </defs>
      <use xlink:href="#DejaVuSansMono-48"/>
      <use xlink:href="#DejaVuSansMono-61" x="60.205078"/>
      <use xlink:href="#DejaVuSansMono-72" x="120.410156"/>
      <use xlink:href="#DejaVuSansMono-6d" x="180.615234"/>
      <use xlink:href="#DejaVuSansMono-66" x="240.820312"/>
      <use xlink:href="#DejaVuSansMono-75" x="301.025391"/>
      <use xlink:href="#DejaVuSansMono-6c" x="361.230469"/>
      <use xlink:href="#DejaVuSansMono-20" x="421.435547"/>
      <use xlink:href="#DejaVuSansMono-52" x="481.640625"/>
      <use xlink:href="#DejaVuSansMono-61" x="541.845703"/>
      <use xlink:href="#DejaVuSansMono-74" x="602.050781"/>
      <use xlink:href="#DejaVuSansMono-65" x="662.255859"/>
     </g>
    </g>
   </g>
   <g id="line2d_15">
    <path d="M 80.664545 48.305455 
L 208.71 137.551624 
L 336.755455 129.618631 
" clip-path="url(#p2b61d4a238)" style="fill: none; stroke: #308ce8; stroke-width: 5; stroke-linecap: round"/>
   </g>
   <g id="line2d_16">
    <path d="M 80.664545 121.685638 
L 208.71 121.685638 
L 336.755455 121.685638 
" clip-path="url(#p2b61d4a238)" style="fill: none; stroke: #e62b4f; stroke-width: 5; stroke-linecap: round"/>
   </g>
   <g id="line2d_17">
    <path d="M 80.664545 224.814545 
L 208.71 224.814545 
L 336.755455 224.814545 
" clip-path="url(#p2b61d4a238)" style="fill: none; stroke: #a8a8a8; stroke-width: 5; stroke-linecap: round"/>
   </g>
   <g id="patch_3">
    <path d="M 67.86 233.64 
L 67.86 39.48 
" style="fill: none; stroke: #000000; stroke-linejoin: miter; stroke-linecap: square"/>
   </g>
   <g id="patch_4">
    <path d="M 67.86 233.64 
L 349.56 233.64 
" style="fill: none; stroke: #000000; stroke-linejoin: miter; stroke-linecap: square"/>
   </g>
   <g id="text_10">
    <!-- discrimination,stereotype,injustice -->
    <g style="fill: #262626" transform="translate(29.605703 24.48) scale(0.17 -0.17)">
     <defs>
      <path id="DejaVuSansMono-64" d="M 2681 3053 
L 2681 4863 
L 3256 4863 
L 3256 0 
L 2681 0 
L 2681 441 
Q 2538 181 2298 45 
Q 2059 -91 1747 -91 
Q 1113 -91 748 401 
Q 384 894 384 1759 
Q 384 2613 750 3098 
Q 1116 3584 1747 3584 
Q 2063 3584 2303 3448 
Q 2544 3313 2681 3053 
z
M 991 1747 
Q 991 1078 1203 737 
Q 1416 397 1831 397 
Q 2247 397 2464 740 
Q 2681 1084 2681 1747 
Q 2681 2413 2464 2755 
Q 2247 3097 1831 3097 
Q 1416 3097 1203 2756 
Q 991 2416 991 1747 
z
" transform="scale(0.015625)"/>
      <path id="DejaVuSansMono-73" d="M 3041 3378 
L 3041 2816 
Q 2794 2959 2544 3031 
Q 2294 3103 2034 3103 
Q 1644 3103 1451 2976 
Q 1259 2850 1259 2591 
Q 1259 2356 1403 2240 
Q 1547 2125 2119 2016 
L 2350 1972 
Q 2778 1891 2998 1647 
Q 3219 1403 3219 1013 
Q 3219 494 2850 201 
Q 2481 -91 1825 -91 
Q 1566 -91 1281 -36 
Q 997 19 666 128 
L 666 722 
Q 988 556 1281 473 
Q 1575 391 1838 391 
Q 2219 391 2428 545 
Q 2638 700 2638 978 
Q 2638 1378 1872 1531 
L 1847 1538 
L 1631 1581 
Q 1134 1678 906 1908 
Q 678 2138 678 2534 
Q 678 3038 1018 3311 
Q 1359 3584 1991 3584 
Q 2272 3584 2531 3532 
Q 2791 3481 3041 3378 
z
" transform="scale(0.015625)"/>
      <path id="DejaVuSansMono-63" d="M 3316 178 
Q 3084 44 2839 -23 
Q 2594 -91 2338 -91 
Q 1525 -91 1067 396 
Q 609 884 609 1747 
Q 609 2609 1067 3096 
Q 1525 3584 2338 3584 
Q 2591 3584 2831 3518 
Q 3072 3453 3316 3316 
L 3316 2713 
Q 3088 2916 2858 3006 
Q 2628 3097 2338 3097 
Q 1797 3097 1506 2747 
Q 1216 2397 1216 1747 
Q 1216 1100 1508 748 
Q 1800 397 2338 397 
Q 2638 397 2875 489 
Q 3113 581 3316 775 
L 3316 178 
z
" transform="scale(0.015625)"/>
      <path id="DejaVuSansMono-2c" d="M 1569 947 
L 2356 947 
L 2356 300 
L 1741 -897 
L 1259 -897 
L 1569 300 
L 1569 947 
z
" transform="scale(0.015625)"/>
      <path id="DejaVuSansMono-79" d="M 2681 1125 
Q 2538 759 2316 163 
Q 2006 -663 1900 -844 
Q 1756 -1088 1540 -1209 
Q 1325 -1331 1038 -1331 
L 575 -1331 
L 575 -850 
L 916 -850 
Q 1169 -850 1312 -703 
Q 1456 -556 1678 56 
L 325 3500 
L 934 3500 
L 1972 763 
L 2994 3500 
L 3603 3500 
L 2681 1125 
z
" transform="scale(0.015625)"/>
      <path id="DejaVuSansMono-70" d="M 1172 441 
L 1172 -1331 
L 594 -1331 
L 594 3500 
L 1172 3500 
L 1172 3053 
Q 1316 3313 1555 3448 
Q 1794 3584 2106 3584 
Q 2741 3584 3102 3093 
Q 3463 2603 3463 1734 
Q 3463 881 3100 395 
Q 2738 -91 2106 -91 
Q 1788 -91 1548 45 
Q 1309 181 1172 441 
z
M 2859 1747 
Q 2859 2416 2648 2756 
Q 2438 3097 2022 3097 
Q 1603 3097 1387 2755 
Q 1172 2413 1172 1747 
Q 1172 1084 1387 740 
Q 1603 397 2022 397 
Q 2438 397 2648 737 
Q 2859 1078 2859 1747 
z
" transform="scale(0.015625)"/>
      <path id="DejaVuSansMono-6a" d="M 1875 -63 
L 1875 3053 
L 884 3053 
L 884 3500 
L 2450 3500 
L 2450 -63 
Q 2450 -672 2170 -1001 
Q 1891 -1331 1375 -1331 
L 581 -1331 
L 581 -844 
L 1313 -844 
Q 1594 -844 1734 -648 
Q 1875 -453 1875 -63 
z
M 1875 4863 
L 2450 4863 
L 2450 4134 
L 1875 4134 
L 1875 4863 
z
" transform="scale(0.015625)"/>
     </defs>
     <use xlink:href="#DejaVuSansMono-64"/>
     <use xlink:href="#DejaVuSansMono-69" x="60.205078"/>
     <use xlink:href="#DejaVuSansMono-73" x="120.410156"/>
     <use xlink:href="#DejaVuSansMono-63" x="180.615234"/>
     <use xlink:href="#DejaVuSansMono-72" x="240.820312"/>
     <use xlink:href="#DejaVuSansMono-69" x="301.025391"/>
     <use xlink:href="#DejaVuSansMono-6d" x="361.230469"/>
     <use xlink:href="#DejaVuSansMono-69" x="421.435547"/>
     <use xlink:href="#DejaVuSansMono-6e" x="481.640625"/>
     <use xlink:href="#DejaVuSansMono-61" x="541.845703"/>
     <use xlink:href="#DejaVuSansMono-74" x="602.050781"/>
     <use xlink:href="#DejaVuSansMono-69" x="662.255859"/>
     <use xlink:href="#DejaVuSansMono-6f" x="722.460938"/>
     <use xlink:href="#DejaVuSansMono-6e" x="782.666016"/>
     <use xlink:href="#DejaVuSansMono-2c" x="842.871094"/>
     <use xlink:href="#DejaVuSansMono-73" x="903.076172"/>
     <use xlink:href="#DejaVuSansMono-74" x="963.28125"/>
     <use xlink:href="#DejaVuSansMono-65" x="1023.486328"/>
     <use xlink:href="#DejaVuSansMono-72" x="1083.691406"/>
     <use xlink:href="#DejaVuSansMono-65" x="1143.896484"/>
     <use xlink:href="#DejaVuSansMono-6f" x="1204.101562"/>
     <use xlink:href="#DejaVuSansMono-74" x="1264.306641"/>
     <use xlink:href="#DejaVuSansMono-79" x="1324.511719"/>
     <use xlink:href="#DejaVuSansMono-70" x="1384.716797"/>
     <use xlink:href="#DejaVuSansMono-65" x="1444.921875"/>
     <use xlink:href="#DejaVuSansMono-2c" x="1505.126953"/>
     <use xlink:href="#DejaVuSansMono-69" x="1565.332031"/>
     <use xlink:href="#DejaVuSansMono-6e" x="1625.537109"/>
     <use xlink:href="#DejaVuSansMono-6a" x="1685.742188"/>
     <use xlink:href="#DejaVuSansMono-75" x="1745.947266"/>
     <use xlink:href="#DejaVuSansMono-73" x="1806.152344"/>
     <use xlink:href="#DejaVuSansMono-74" x="1866.357422"/>
     <use xlink:href="#DejaVuSansMono-69" x="1926.5625"/>
     <use xlink:href="#DejaVuSansMono-63" x="1986.767578"/>
     <use xlink:href="#DejaVuSansMono-65" x="2046.972656"/>
    </g>
   </g>
  </g>
  <g id="axes_2">
   <g id="patch_5">
    <path d="M 427.68 233.64 
L 709.38 233.64 
L 709.38 39.48 
L 427.68 39.48 
z
" style="fill: #ffffff"/>
   </g>
   <g id="matplotlib.axis_3">
    <g id="xtick_4">
     <g id="line2d_18">
      <path d="M 440.484545 233.64 
L 440.484545 39.48 
" clip-path="url(#pd583e536f6)" style="fill: none; stroke: #cccccc; stroke-width: 0.8; stroke-linecap: round"/>
     </g>
     <g id="line2d_19"/>
     <g id="text_11">
      <!-- 0 -->
      <g style="fill: #262626" transform="translate(435.36728 251.647656) scale(0.17 -0.17)">
       <use xlink:href="#DejaVuSansMono-30"/>
      </g>
     </g>
    </g>
    <g id="xtick_5">
     <g id="line2d_20">
      <path d="M 568.53 233.64 
L 568.53 39.48 
" clip-path="url(#pd583e536f6)" style="fill: none; stroke: #cccccc; stroke-width: 0.8; stroke-linecap: round"/>
     </g>
     <g id="line2d_21"/>
     <g id="text_12">
      <!-- 1 -->
      <g style="fill: #262626" transform="translate(563.412734 251.647656) scale(0.17 -0.17)">
       <use xlink:href="#DejaVuSansMono-31"/>
      </g>
     </g>
    </g>
    <g id="xtick_6">
     <g id="line2d_22">
      <path d="M 696.575455 233.64 
L 696.575455 39.48 
" clip-path="url(#pd583e536f6)" style="fill: none; stroke: #cccccc; stroke-width: 0.8; stroke-linecap: round"/>
     </g>
     <g id="line2d_23"/>
     <g id="text_13">
      <!-- 2 -->
      <g style="fill: #262626" transform="translate(691.458189 251.647656) scale(0.17 -0.17)">
       <use xlink:href="#DejaVuSansMono-32"/>
      </g>
     </g>
    </g>
    <g id="text_14">
     <!-- Iteration -->
     <g style="fill: #262626" transform="translate(522.474609 272.190781) scale(0.17 -0.17)">
      <use xlink:href="#DejaVuSansMono-49"/>
      <use xlink:href="#DejaVuSansMono-74" x="60.205078"/>
      <use xlink:href="#DejaVuSansMono-65" x="120.410156"/>
      <use xlink:href="#DejaVuSansMono-72" x="180.615234"/>
      <use xlink:href="#DejaVuSansMono-61" x="240.820312"/>
      <use xlink:href="#DejaVuSansMono-74" x="301.025391"/>
      <use xlink:href="#DejaVuSansMono-69" x="361.230469"/>
      <use xlink:href="#DejaVuSansMono-6f" x="421.435547"/>
      <use xlink:href="#DejaVuSansMono-6e" x="481.640625"/>
     </g>
    </g>
   </g>
   <g id="matplotlib.axis_4">
    <g id="ytick_5">
     <g id="line2d_24">
      <path d="M 427.68 189.512727 
L 709.38 189.512727 
" clip-path="url(#pd583e536f6)" style="fill: none; stroke: #cccccc; stroke-width: 0.8; stroke-linecap: round"/>
     </g>
     <g id="line2d_25"/>
     <g id="text_15">
      <!-- 0.10 -->
      <g style="fill: #262626" transform="translate(381.741875 196.016555) scale(0.17 -0.17)">
       <use xlink:href="#DejaVuSansMono-30"/>
       <use xlink:href="#DejaVuSansMono-2e" x="60.205078"/>
       <use xlink:href="#DejaVuSansMono-31" x="120.410156"/>
       <use xlink:href="#DejaVuSansMono-30" x="180.615234"/>
      </g>
     </g>
    </g>
    <g id="ytick_6">
     <g id="line2d_26">
      <path d="M 427.68 140.482424 
L 709.38 140.482424 
" clip-path="url(#pd583e536f6)" style="fill: none; stroke: #cccccc; stroke-width: 0.8; stroke-linecap: round"/>
     </g>
     <g id="line2d_27"/>
     <g id="text_16">
      <!-- 0.15 -->
      <g style="fill: #262626" transform="translate(381.741875 146.986252) scale(0.17 -0.17)">
       <defs>
        <path id="DejaVuSansMono-35" d="M 647 4666 
L 3009 4666 
L 3009 4134 
L 1222 4134 
L 1222 2988 
Q 1356 3038 1492 3061 
Q 1628 3084 1766 3084 
Q 2491 3084 2916 2656 
Q 3341 2228 3341 1497 
Q 3341 759 2895 334 
Q 2450 -91 1678 -91 
Q 1306 -91 998 -41 
Q 691 9 447 109 
L 447 750 
Q 734 594 1025 517 
Q 1316 441 1619 441 
Q 2141 441 2423 716 
Q 2706 991 2706 1497 
Q 2706 1997 2414 2275 
Q 2122 2553 1600 2553 
Q 1347 2553 1106 2495 
Q 866 2438 647 2322 
L 647 4666 
z
" transform="scale(0.015625)"/>
       </defs>
       <use xlink:href="#DejaVuSansMono-30"/>
       <use xlink:href="#DejaVuSansMono-2e" x="60.205078"/>
       <use xlink:href="#DejaVuSansMono-31" x="120.410156"/>
       <use xlink:href="#DejaVuSansMono-35" x="180.615234"/>
      </g>
     </g>
    </g>
    <g id="ytick_7">
     <g id="line2d_28">
      <path d="M 427.68 91.452121 
L 709.38 91.452121 
" clip-path="url(#pd583e536f6)" style="fill: none; stroke: #cccccc; stroke-width: 0.8; stroke-linecap: round"/>
     </g>
     <g id="line2d_29"/>
     <g id="text_17">
      <!-- 0.20 -->
      <g style="fill: #262626" transform="translate(381.741875 97.955949) scale(0.17 -0.17)">
       <use xlink:href="#DejaVuSansMono-30"/>
       <use xlink:href="#DejaVuSansMono-2e" x="60.205078"/>
       <use xlink:href="#DejaVuSansMono-32" x="120.410156"/>
       <use xlink:href="#DejaVuSansMono-30" x="180.615234"/>
      </g>
     </g>
    </g>
    <g id="ytick_8">
     <g id="line2d_30">
      <path d="M 427.68 42.421818 
L 709.38 42.421818 
" clip-path="url(#pd583e536f6)" style="fill: none; stroke: #cccccc; stroke-width: 0.8; stroke-linecap: round"/>
     </g>
     <g id="line2d_31"/>
     <g id="text_18">
      <!-- 0.25 -->
      <g style="fill: #262626" transform="translate(381.741875 48.925646) scale(0.17 -0.17)">
       <use xlink:href="#DejaVuSansMono-30"/>
       <use xlink:href="#DejaVuSansMono-2e" x="60.205078"/>
       <use xlink:href="#DejaVuSansMono-32" x="120.410156"/>
       <use xlink:href="#DejaVuSansMono-35" x="180.615234"/>
      </g>
     </g>
    </g>
    <g id="text_19">
     <!-- Harmful Rate -->
     <g style="fill: #262626" transform="translate(374.206406 197.967188) rotate(-90) scale(0.17 -0.17)">
      <use xlink:href="#DejaVuSansMono-48"/>
      <use xlink:href="#DejaVuSansMono-61" x="60.205078"/>
      <use xlink:href="#DejaVuSansMono-72" x="120.410156"/>
      <use xlink:href="#DejaVuSansMono-6d" x="180.615234"/>
      <use xlink:href="#DejaVuSansMono-66" x="240.820312"/>
      <use xlink:href="#DejaVuSansMono-75" x="301.025391"/>
      <use xlink:href="#DejaVuSansMono-6c" x="361.230469"/>
      <use xlink:href="#DejaVuSansMono-20" x="421.435547"/>
      <use xlink:href="#DejaVuSansMono-52" x="481.640625"/>
      <use xlink:href="#DejaVuSansMono-61" x="541.845703"/>
      <use xlink:href="#DejaVuSansMono-74" x="602.050781"/>
      <use xlink:href="#DejaVuSansMono-65" x="662.255859"/>
     </g>
    </g>
   </g>
   <g id="line2d_32">
    <path d="M 440.484545 48.305455 
L 568.53 114.986667 
L 696.575455 142.443636 
" clip-path="url(#pd583e536f6)" style="fill: none; stroke: #308ce8; stroke-width: 5; stroke-linecap: round"/>
   </g>
   <g id="line2d_33">
    <path d="M 440.484545 146.366061 
L 568.53 146.366061 
L 696.575455 146.366061 
" clip-path="url(#pd583e536f6)" style="fill: none; stroke: #e62b4f; stroke-width: 5; stroke-linecap: round"/>
   </g>
   <g id="line2d_34">
    <path d="M 440.484545 224.814545 
L 568.53 224.814545 
L 696.575455 224.814545 
" clip-path="url(#pd583e536f6)" style="fill: none; stroke: #a8a8a8; stroke-width: 5; stroke-linecap: round"/>
   </g>
   <g id="patch_6">
    <path d="M 427.68 233.64 
L 427.68 39.48 
" style="fill: none; stroke: #000000; stroke-linejoin: miter; stroke-linecap: square"/>
   </g>
   <g id="patch_7">
    <path d="M 427.68 233.64 
L 709.38 233.64 
" style="fill: none; stroke: #000000; stroke-linejoin: miter; stroke-linecap: square"/>
   </g>
   <g id="text_20">
    <!-- hate_speech,offensive_language -->
    <g style="fill: #262626" transform="translate(415.012031 24.48) scale(0.17 -0.17)">
     <defs>
      <path id="DejaVuSansMono-68" d="M 3284 2169 
L 3284 0 
L 2706 0 
L 2706 2169 
Q 2706 2641 2540 2862 
Q 2375 3084 2022 3084 
Q 1619 3084 1401 2798 
Q 1184 2513 1184 1978 
L 1184 0 
L 609 0 
L 609 4863 
L 1184 4863 
L 1184 2975 
Q 1338 3275 1600 3429 
Q 1863 3584 2222 3584 
Q 2756 3584 3020 3232 
Q 3284 2881 3284 2169 
z
" transform="scale(0.015625)"/>
      <path id="DejaVuSansMono-5f" d="M 3853 -1259 
L 3853 -1509 
L 0 -1509 
L 0 -1259 
L 3853 -1259 
z
" transform="scale(0.015625)"/>
      <path id="DejaVuSansMono-76" d="M 313 3500 
L 909 3500 
L 1925 563 
L 2944 3500 
L 3541 3500 
L 2297 0 
L 1556 0 
L 313 3500 
z
" transform="scale(0.015625)"/>
      <path id="DejaVuSansMono-67" d="M 2681 1778 
Q 2681 2425 2470 2761 
Q 2259 3097 1856 3097 
Q 1434 3097 1212 2761 
Q 991 2425 991 1778 
Q 991 1131 1214 792 
Q 1438 453 1863 453 
Q 2259 453 2470 793 
Q 2681 1134 2681 1778 
z
M 3256 225 
Q 3256 -563 2884 -969 
Q 2513 -1375 1791 -1375 
Q 1553 -1375 1293 -1331 
Q 1034 -1288 775 -1203 
L 775 -634 
Q 1081 -778 1331 -847 
Q 1581 -916 1791 -916 
Q 2256 -916 2468 -662 
Q 2681 -409 2681 141 
L 2681 166 
L 2681 556 
Q 2544 263 2306 119 
Q 2069 -25 1728 -25 
Q 1116 -25 750 465 
Q 384 956 384 1778 
Q 384 2603 750 3093 
Q 1116 3584 1728 3584 
Q 2066 3584 2300 3450 
Q 2534 3316 2681 3034 
L 2681 3488 
L 3256 3488 
L 3256 225 
z
" transform="scale(0.015625)"/>
     </defs>
     <use xlink:href="#DejaVuSansMono-68"/>
     <use xlink:href="#DejaVuSansMono-61" x="60.205078"/>
     <use xlink:href="#DejaVuSansMono-74" x="120.410156"/>
     <use xlink:href="#DejaVuSansMono-65" x="180.615234"/>
     <use xlink:href="#DejaVuSansMono-5f" x="240.820312"/>
     <use xlink:href="#DejaVuSansMono-73" x="301.025391"/>
     <use xlink:href="#DejaVuSansMono-70" x="361.230469"/>
     <use xlink:href="#DejaVuSansMono-65" x="421.435547"/>
     <use xlink:href="#DejaVuSansMono-65" x="481.640625"/>
     <use xlink:href="#DejaVuSansMono-63" x="541.845703"/>
     <use xlink:href="#DejaVuSansMono-68" x="602.050781"/>
     <use xlink:href="#DejaVuSansMono-2c" x="662.255859"/>
     <use xlink:href="#DejaVuSansMono-6f" x="722.460938"/>
     <use xlink:href="#DejaVuSansMono-66" x="782.666016"/>
     <use xlink:href="#DejaVuSansMono-66" x="842.871094"/>
     <use xlink:href="#DejaVuSansMono-65" x="903.076172"/>
     <use xlink:href="#DejaVuSansMono-6e" x="963.28125"/>
     <use xlink:href="#DejaVuSansMono-73" x="1023.486328"/>
     <use xlink:href="#DejaVuSansMono-69" x="1083.691406"/>
     <use xlink:href="#DejaVuSansMono-76" x="1143.896484"/>
     <use xlink:href="#DejaVuSansMono-65" x="1204.101562"/>
     <use xlink:href="#DejaVuSansMono-5f" x="1264.306641"/>
     <use xlink:href="#DejaVuSansMono-6c" x="1324.511719"/>
     <use xlink:href="#DejaVuSansMono-61" x="1384.716797"/>
     <use xlink:href="#DejaVuSansMono-6e" x="1444.921875"/>
     <use xlink:href="#DejaVuSansMono-67" x="1505.126953"/>
     <use xlink:href="#DejaVuSansMono-75" x="1565.332031"/>
     <use xlink:href="#DejaVuSansMono-61" x="1625.537109"/>
     <use xlink:href="#DejaVuSansMono-67" x="1685.742188"/>
     <use xlink:href="#DejaVuSansMono-65" x="1745.947266"/>
    </g>
   </g>
  </g>
  <g id="axes_3">
   <g id="patch_8">
    <path d="M 787.5 233.64 
L 1069.2 233.64 
L 1069.2 39.48 
L 787.5 39.48 
z
" style="fill: #ffffff"/>
   </g>
   <g id="matplotlib.axis_5">
    <g id="xtick_7">
     <g id="line2d_35">
      <path d="M 800.304545 233.64 
L 800.304545 39.48 
" clip-path="url(#p53923112e1)" style="fill: none; stroke: #cccccc; stroke-width: 0.8; stroke-linecap: round"/>
     </g>
     <g id="line2d_36"/>
     <g id="text_21">
      <!-- 0 -->
      <g style="fill: #262626" transform="translate(795.18728 251.647656) scale(0.17 -0.17)">
       <use xlink:href="#DejaVuSansMono-30"/>
      </g>
     </g>
    </g>
    <g id="xtick_8">
     <g id="line2d_37">
      <path d="M 928.35 233.64 
L 928.35 39.48 
" clip-path="url(#p53923112e1)" style="fill: none; stroke: #cccccc; stroke-width: 0.8; stroke-linecap: round"/>
     </g>
     <g id="line2d_38"/>
     <g id="text_22">
      <!-- 1 -->
      <g style="fill: #262626" transform="translate(923.232734 251.647656) scale(0.17 -0.17)">
       <use xlink:href="#DejaVuSansMono-31"/>
      </g>
     </g>
    </g>
    <g id="xtick_9">
     <g id="line2d_39">
      <path d="M 1056.395455 233.64 
L 1056.395455 39.48 
" clip-path="url(#p53923112e1)" style="fill: none; stroke: #cccccc; stroke-width: 0.8; stroke-linecap: round"/>
     </g>
     <g id="line2d_40"/>
     <g id="text_23">
      <!-- 2 -->
      <g style="fill: #262626" transform="translate(1051.278189 251.647656) scale(0.17 -0.17)">
       <use xlink:href="#DejaVuSansMono-32"/>
      </g>
     </g>
    </g>
    <g id="text_24">
     <!-- Iteration -->
     <g style="fill: #262626" transform="translate(882.294609 272.190781) scale(0.17 -0.17)">
      <use xlink:href="#DejaVuSansMono-49"/>
      <use xlink:href="#DejaVuSansMono-74" x="60.205078"/>
      <use xlink:href="#DejaVuSansMono-65" x="120.410156"/>
      <use xlink:href="#DejaVuSansMono-72" x="180.615234"/>
      <use xlink:href="#DejaVuSansMono-61" x="240.820312"/>
      <use xlink:href="#DejaVuSansMono-74" x="301.025391"/>
      <use xlink:href="#DejaVuSansMono-69" x="361.230469"/>
      <use xlink:href="#DejaVuSansMono-6f" x="421.435547"/>
      <use xlink:href="#DejaVuSansMono-6e" x="481.640625"/>
     </g>
    </g>
   </g>
   <g id="matplotlib.axis_6">
    <g id="ytick_9">
     <g id="line2d_41">
      <path d="M 787.5 199.598961 
L 1069.2 199.598961 
" clip-path="url(#p53923112e1)" style="fill: none; stroke: #cccccc; stroke-width: 0.8; stroke-linecap: round"/>
     </g>
     <g id="line2d_42"/>
     <g id="text_25">
      <!-- 0.12 -->
      <g style="fill: #262626" transform="translate(741.561875 206.102789) scale(0.17 -0.17)">
       <use xlink:href="#DejaVuSansMono-30"/>
       <use xlink:href="#DejaVuSansMono-2e" x="60.205078"/>
       <use xlink:href="#DejaVuSansMono-31" x="120.410156"/>
       <use xlink:href="#DejaVuSansMono-32" x="180.615234"/>
      </g>
     </g>
    </g>
    <g id="ytick_10">
     <g id="line2d_43">
      <path d="M 787.5 149.167792 
L 1069.2 149.167792 
" clip-path="url(#p53923112e1)" style="fill: none; stroke: #cccccc; stroke-width: 0.8; stroke-linecap: round"/>
     </g>
     <g id="line2d_44"/>
     <g id="text_26">
      <!-- 0.16 -->
      <g style="fill: #262626" transform="translate(741.561875 155.67162) scale(0.17 -0.17)">
       <defs>
        <path id="DejaVuSansMono-36" d="M 3097 4563 
L 3097 3981 
Q 2900 4097 2678 4158 
Q 2456 4219 2216 4219 
Q 1616 4219 1306 3767 
Q 997 3316 997 2438 
Q 1147 2750 1412 2917 
Q 1678 3084 2022 3084 
Q 2697 3084 3067 2670 
Q 3438 2256 3438 1497 
Q 3438 741 3056 325 
Q 2675 -91 1984 -91 
Q 1172 -91 794 492 
Q 416 1075 416 2328 
Q 416 3509 870 4129 
Q 1325 4750 2188 4750 
Q 2419 4750 2650 4701 
Q 2881 4653 3097 4563 
z
M 1972 2591 
Q 1569 2591 1337 2300 
Q 1106 2009 1106 1497 
Q 1106 984 1337 693 
Q 1569 403 1972 403 
Q 2391 403 2603 679 
Q 2816 956 2816 1497 
Q 2816 2041 2603 2316 
Q 2391 2591 1972 2591 
z
" transform="scale(0.015625)"/>
       </defs>
       <use xlink:href="#DejaVuSansMono-30"/>
       <use xlink:href="#DejaVuSansMono-2e" x="60.205078"/>
       <use xlink:href="#DejaVuSansMono-31" x="120.410156"/>
       <use xlink:href="#DejaVuSansMono-36" x="180.615234"/>
      </g>
     </g>
    </g>
    <g id="ytick_11">
     <g id="line2d_45">
      <path d="M 787.5 98.736623 
L 1069.2 98.736623 
" clip-path="url(#p53923112e1)" style="fill: none; stroke: #cccccc; stroke-width: 0.8; stroke-linecap: round"/>
     </g>
     <g id="line2d_46"/>
     <g id="text_27">
      <!-- 0.20 -->
      <g style="fill: #262626" transform="translate(741.561875 105.240452) scale(0.17 -0.17)">
       <use xlink:href="#DejaVuSansMono-30"/>
       <use xlink:href="#DejaVuSansMono-2e" x="60.205078"/>
       <use xlink:href="#DejaVuSansMono-32" x="120.410156"/>
       <use xlink:href="#DejaVuSansMono-30" x="180.615234"/>
      </g>
     </g>
    </g>
    <g id="ytick_12">
     <g id="line2d_47">
      <path d="M 787.5 48.305455 
L 1069.2 48.305455 
" clip-path="url(#p53923112e1)" style="fill: none; stroke: #cccccc; stroke-width: 0.8; stroke-linecap: round"/>
     </g>
     <g id="line2d_48"/>
     <g id="text_28">
      <!-- 0.24 -->
      <g style="fill: #262626" transform="translate(741.561875 54.809283) scale(0.17 -0.17)">
       <use xlink:href="#DejaVuSansMono-30"/>
       <use xlink:href="#DejaVuSansMono-2e" x="60.205078"/>
       <use xlink:href="#DejaVuSansMono-32" x="120.410156"/>
       <use xlink:href="#DejaVuSansMono-34" x="180.615234"/>
      </g>
     </g>
    </g>
    <g id="text_29">
     <!-- Harmful Rate -->
     <g style="fill: #262626" transform="translate(734.026406 197.967188) rotate(-90) scale(0.17 -0.17)">
      <use xlink:href="#DejaVuSansMono-48"/>
      <use xlink:href="#DejaVuSansMono-61" x="60.205078"/>
      <use xlink:href="#DejaVuSansMono-72" x="120.410156"/>
      <use xlink:href="#DejaVuSansMono-6d" x="180.615234"/>
      <use xlink:href="#DejaVuSansMono-66" x="240.820312"/>
      <use xlink:href="#DejaVuSansMono-75" x="301.025391"/>
      <use xlink:href="#DejaVuSansMono-6c" x="361.230469"/>
      <use xlink:href="#DejaVuSansMono-20" x="421.435547"/>
      <use xlink:href="#DejaVuSansMono-52" x="481.640625"/>
      <use xlink:href="#DejaVuSansMono-61" x="541.845703"/>
      <use xlink:href="#DejaVuSansMono-74" x="602.050781"/>
      <use xlink:href="#DejaVuSansMono-65" x="662.255859"/>
     </g>
    </g>
   </g>
   <g id="line2d_49">
    <path d="M 800.304545 48.305455 
L 928.35 209.685195 
L 1056.395455 164.297143 
" clip-path="url(#p53923112e1)" style="fill: none; stroke: #308ce8; stroke-width: 5; stroke-linecap: round"/>
   </g>
   <g id="line2d_50">
    <path d="M 800.304545 194.555844 
L 928.35 194.555844 
L 1056.395455 194.555844 
" clip-path="url(#p53923112e1)" style="fill: none; stroke: #e62b4f; stroke-width: 5; stroke-linecap: round"/>
   </g>
   <g id="line2d_51">
    <path d="M 800.304545 224.814545 
L 928.35 224.814545 
L 1056.395455 224.814545 
" clip-path="url(#p53923112e1)" style="fill: none; stroke: #a8a8a8; stroke-width: 5; stroke-linecap: round"/>
   </g>
   <g id="patch_9">
    <path d="M 787.5 233.64 
L 787.5 39.48 
" style="fill: none; stroke: #000000; stroke-linejoin: miter; stroke-linecap: square"/>
   </g>
   <g id="patch_10">
    <path d="M 787.5 233.64 
L 1069.2 233.64 
" style="fill: none; stroke: #000000; stroke-linejoin: miter; stroke-linecap: square"/>
   </g>
   <g id="text_30">
    <!-- non_violent_unethical_behavior -->
    <g style="fill: #262626" transform="translate(774.832031 24.48) scale(0.17 -0.17)">
     <defs>
      <path id="DejaVuSansMono-62" d="M 2869 1747 
Q 2869 2416 2656 2756 
Q 2444 3097 2028 3097 
Q 1609 3097 1393 2755 
Q 1178 2413 1178 1747 
Q 1178 1084 1393 740 
Q 1609 397 2028 397 
Q 2444 397 2656 737 
Q 2869 1078 2869 1747 
z
M 1178 3053 
Q 1316 3309 1558 3446 
Q 1800 3584 2119 3584 
Q 2750 3584 3112 3098 
Q 3475 2613 3475 1759 
Q 3475 894 3111 401 
Q 2747 -91 2113 -91 
Q 1800 -91 1561 45 
Q 1322 181 1178 441 
L 1178 0 
L 603 0 
L 603 4863 
L 1178 4863 
L 1178 3053 
z
" transform="scale(0.015625)"/>
     </defs>
     <use xlink:href="#DejaVuSansMono-6e"/>
     <use xlink:href="#DejaVuSansMono-6f" x="60.205078"/>
     <use xlink:href="#DejaVuSansMono-6e" x="120.410156"/>
     <use xlink:href="#DejaVuSansMono-5f" x="180.615234"/>
     <use xlink:href="#DejaVuSansMono-76" x="240.820312"/>
     <use xlink:href="#DejaVuSansMono-69" x="301.025391"/>
     <use xlink:href="#DejaVuSansMono-6f" x="361.230469"/>
     <use xlink:href="#DejaVuSansMono-6c" x="421.435547"/>
     <use xlink:href="#DejaVuSansMono-65" x="481.640625"/>
     <use xlink:href="#DejaVuSansMono-6e" x="541.845703"/>
     <use xlink:href="#DejaVuSansMono-74" x="602.050781"/>
     <use xlink:href="#DejaVuSansMono-5f" x="662.255859"/>
     <use xlink:href="#DejaVuSansMono-75" x="722.460938"/>
     <use xlink:href="#DejaVuSansMono-6e" x="782.666016"/>
     <use xlink:href="#DejaVuSansMono-65" x="842.871094"/>
     <use xlink:href="#DejaVuSansMono-74" x="903.076172"/>
     <use xlink:href="#DejaVuSansMono-68" x="963.28125"/>
     <use xlink:href="#DejaVuSansMono-69" x="1023.486328"/>
     <use xlink:href="#DejaVuSansMono-63" x="1083.691406"/>
     <use xlink:href="#DejaVuSansMono-61" x="1143.896484"/>
     <use xlink:href="#DejaVuSansMono-6c" x="1204.101562"/>
     <use xlink:href="#DejaVuSansMono-5f" x="1264.306641"/>
     <use xlink:href="#DejaVuSansMono-62" x="1324.511719"/>
     <use xlink:href="#DejaVuSansMono-65" x="1384.716797"/>
     <use xlink:href="#DejaVuSansMono-68" x="1444.921875"/>
     <use xlink:href="#DejaVuSansMono-61" x="1505.126953"/>
     <use xlink:href="#DejaVuSansMono-76" x="1565.332031"/>
     <use xlink:href="#DejaVuSansMono-69" x="1625.537109"/>
     <use xlink:href="#DejaVuSansMono-6f" x="1685.742188"/>
     <use xlink:href="#DejaVuSansMono-72" x="1745.947266"/>
    </g>
   </g>
  </g>
 </g>
 <defs>
  <clipPath id="p2b61d4a238">
   <rect x="67.86" y="39.48" width="281.7" height="194.16"/>
  </clipPath>
  <clipPath id="pd583e536f6">
   <rect x="427.68" y="39.48" width="281.7" height="194.16"/>
  </clipPath>
  <clipPath id="p53923112e1">
   <rect x="787.5" y="39.48" width="281.7" height="194.16"/>
  </clipPath>
 </defs>
</svg>
