<?xml version="1.0" encoding="utf-8" standalone="no"?>
<!DOCTYPE svg PUBLIC "-//W3C//DTD SVG 1.1//EN"
  "http://www.w3.org/Graphics/SVG/1.1/DTD/svg11.dtd">
<svg xmlns:xlink="http://www.w3.org/1999/xlink" width="288pt" height="288pt" viewBox="0 0 288 288" xmlns="http://www.w3.org/2000/svg" version="1.1">
 <metadata>
  <rdf:RDF xmlns:dc="http://purl.org/dc/elements/1.1/" xmlns:cc="http://creativecommons.org/ns#" xmlns:rdf="http://www.w3.org/1999/02/22-rdf-syntax-ns#">
   <cc:Work>
    <dc:type rdf:resource="http://purl.org/dc/dcmitype/StillImage"/>
    <dc:date>2023-11-30T07:40:50.517190</dc:date>
    <dc:format>image/svg+xml</dc:format>
    <dc:creator>
     <cc:Agent>
      <dc:title>Matplotlib v3.8.1, https://matplotlib.org/</dc:title>
     </cc:Agent>
    </dc:creator>
   </cc:Work>
  </rdf:RDF>
 </metadata>
 <defs>
  <style type="text/css">*{stroke-linejoin: round; stroke-linecap: butt}</style>
 </defs>
 <g id="figure_1">
  <g id="patch_1">
   <path d="M 0 288 
L 288 288 
L 288 0 
L 0 0 
z
" style="fill: #ffffff"/>
  </g>
  <g id="axes_1">
   <g id="patch_2">
    <path d="M 81.62 230.14 
L 277.2 230.14 
L 277.2 41.64 
L 81.62 41.64 
z
" style="fill: #ffffff"/>
   </g>
   <g id="matplotlib.axis_1">
    <g id="xtick_1">
     <g id="line2d_1">
      <defs>
       <path id="m28e3e41cb8" d="M 0 0 
L 0 3.5 
" style="stroke: #000000; stroke-width: 0.8"/>
      </defs>
      <g>
       <use xlink:href="#m28e3e41cb8" x="90.51" y="230.14" style="stroke: #000000; stroke-width: 0.8"/>
      </g>
     </g>
     <g id="text_1">
      <!-- 0 -->
      <g transform="translate(85.392734 251.647656) scale(0.17 -0.17)">
       <defs>
        <path id="DejaVuSansMono-30" d="M 1509 2344 
Q 1509 2516 1629 2641 
Q 1750 2766 1919 2766 
Q 2094 2766 2219 2641 
Q 2344 2516 2344 2344 
Q 2344 2169 2220 2047 
Q 2097 1925 1919 1925 
Q 1744 1925 1626 2044 
Q 1509 2163 1509 2344 
z
M 1925 4250 
Q 1484 4250 1267 3775 
Q 1050 3300 1050 2328 
Q 1050 1359 1267 884 
Q 1484 409 1925 409 
Q 2369 409 2586 884 
Q 2803 1359 2803 2328 
Q 2803 3300 2586 3775 
Q 2369 4250 1925 4250 
z
M 1925 4750 
Q 2672 4750 3055 4137 
Q 3438 3525 3438 2328 
Q 3438 1134 3055 521 
Q 2672 -91 1925 -91 
Q 1178 -91 797 521 
Q 416 1134 416 2328 
Q 416 3525 797 4137 
Q 1178 4750 1925 4750 
z
" transform="scale(0.015625)"/>
       </defs>
       <use xlink:href="#DejaVuSansMono-30"/>
      </g>
     </g>
    </g>
    <g id="xtick_2">
     <g id="line2d_2">
      <g>
       <use xlink:href="#m28e3e41cb8" x="179.41" y="230.14" style="stroke: #000000; stroke-width: 0.8"/>
      </g>
     </g>
     <g id="text_2">
      <!-- 1 -->
      <g transform="translate(174.292734 251.647656) scale(0.17 -0.17)">
       <defs>
        <path id="DejaVuSansMono-31" d="M 844 531 
L 1825 531 
L 1825 4097 
L 769 3859 
L 769 4434 
L 1819 4666 
L 2450 4666 
L 2450 531 
L 3419 531 
L 3419 0 
L 844 0 
L 844 531 
z
" transform="scale(0.015625)"/>
       </defs>
       <use xlink:href="#DejaVuSansMono-31"/>
      </g>
     </g>
    </g>
    <g id="xtick_3">
     <g id="line2d_3">
      <g>
       <use xlink:href="#m28e3e41cb8" x="268.31" y="230.14" style="stroke: #000000; stroke-width: 0.8"/>
      </g>
     </g>
     <g id="text_3">
      <!-- 2 -->
      <g transform="translate(263.192734 251.647656) scale(0.17 -0.17)">
       <defs>
        <path id="DejaVuSansMono-32" d="M 1166 531 
L 3309 531 
L 3309 0 
L 475 0 
L 475 531 
Q 1059 1147 1496 1619 
Q 1934 2091 2100 2284 
Q 2413 2666 2522 2902 
Q 2631 3138 2631 3384 
Q 2631 3775 2401 3997 
Q 2172 4219 1772 4219 
Q 1488 4219 1175 4116 
Q 863 4013 513 3803 
L 513 4441 
Q 834 4594 1145 4672 
Q 1456 4750 1759 4750 
Q 2444 4750 2861 4386 
Q 3278 4022 3278 3431 
Q 3278 3131 3139 2831 
Q 3000 2531 2688 2169 
Q 2513 1966 2180 1606 
Q 1847 1247 1166 531 
z
" transform="scale(0.015625)"/>
       </defs>
       <use xlink:href="#DejaVuSansMono-32"/>
      </g>
     </g>
    </g>
    <g id="text_4">
     <!-- Iteration -->
     <g transform="translate(133.354609 272.190781) scale(0.17 -0.17)">
      <defs>
       <path id="DejaVuSansMono-49" d="M 628 4666 
L 3219 4666 
L 3219 4134 
L 2241 4134 
L 2241 531 
L 3219 531 
L 3219 0 
L 628 0 
L 628 531 
L 1606 531 
L 1606 4134 
L 628 4134 
L 628 4666 
z
" transform="scale(0.015625)"/>
       <path id="DejaVuSansMono-74" d="M 1919 4494 
L 1919 3500 
L 3225 3500 
L 3225 3053 
L 1919 3053 
L 1919 1153 
Q 1919 766 2066 612 
Q 2213 459 2578 459 
L 3225 459 
L 3225 0 
L 2522 0 
Q 1875 0 1609 259 
Q 1344 519 1344 1153 
L 1344 3053 
L 409 3053 
L 409 3500 
L 1344 3500 
L 1344 4494 
L 1919 4494 
z
" transform="scale(0.015625)"/>
       <path id="DejaVuSansMono-65" d="M 3475 1894 
L 3475 1613 
L 984 1613 
L 984 1594 
Q 984 1022 1282 709 
Q 1581 397 2125 397 
Q 2400 397 2700 484 
Q 3000 572 3341 750 
L 3341 178 
Q 3013 44 2708 -23 
Q 2403 -91 2119 -91 
Q 1303 -91 843 398 
Q 384 888 384 1747 
Q 384 2584 834 3084 
Q 1284 3584 2034 3584 
Q 2703 3584 3089 3131 
Q 3475 2678 3475 1894 
z
M 2900 2063 
Q 2888 2569 2661 2833 
Q 2434 3097 2009 3097 
Q 1594 3097 1325 2822 
Q 1056 2547 1006 2059 
L 2900 2063 
z
" transform="scale(0.015625)"/>
       <path id="DejaVuSansMono-72" d="M 3609 2778 
Q 3425 2922 3234 2987 
Q 3044 3053 2816 3053 
Q 2278 3053 1993 2715 
Q 1709 2378 1709 1741 
L 1709 0 
L 1131 0 
L 1131 3500 
L 1709 3500 
L 1709 2816 
Q 1853 3188 2151 3386 
Q 2450 3584 2859 3584 
Q 3072 3584 3256 3531 
Q 3441 3478 3609 3366 
L 3609 2778 
z
" transform="scale(0.015625)"/>
       <path id="DejaVuSansMono-61" d="M 2194 1759 
L 2003 1759 
Q 1500 1759 1245 1582 
Q 991 1406 991 1056 
Q 991 741 1181 566 
Q 1372 391 1709 391 
Q 2184 391 2456 720 
Q 2728 1050 2731 1631 
L 2731 1759 
L 2194 1759 
z
M 3309 1997 
L 3309 0 
L 2731 0 
L 2731 519 
Q 2547 206 2267 57 
Q 1988 -91 1588 -91 
Q 1053 -91 734 211 
Q 416 513 416 1019 
Q 416 1603 808 1906 
Q 1200 2209 1959 2209 
L 2731 2209 
L 2731 2300 
Q 2728 2719 2518 2908 
Q 2309 3097 1850 3097 
Q 1556 3097 1256 3012 
Q 956 2928 672 2766 
L 672 3341 
Q 991 3463 1283 3523 
Q 1575 3584 1850 3584 
Q 2284 3584 2592 3456 
Q 2900 3328 3091 3072 
Q 3209 2916 3259 2686 
Q 3309 2456 3309 1997 
z
" transform="scale(0.015625)"/>
       <path id="DejaVuSansMono-69" d="M 800 3500 
L 2272 3500 
L 2272 447 
L 3413 447 
L 3413 0 
L 556 0 
L 556 447 
L 1697 447 
L 1697 3053 
L 800 3053 
L 800 3500 
z
M 1697 4863 
L 2272 4863 
L 2272 4134 
L 1697 4134 
L 1697 4863 
z
" transform="scale(0.015625)"/>
       <path id="DejaVuSansMono-6f" d="M 1925 3097 
Q 1488 3097 1263 2756 
Q 1038 2416 1038 1747 
Q 1038 1081 1263 739 
Q 1488 397 1925 397 
Q 2366 397 2591 739 
Q 2816 1081 2816 1747 
Q 2816 2416 2591 2756 
Q 2366 3097 1925 3097 
z
M 1925 3584 
Q 2653 3584 3039 3112 
Q 3425 2641 3425 1747 
Q 3425 850 3040 379 
Q 2656 -91 1925 -91 
Q 1197 -91 812 379 
Q 428 850 428 1747 
Q 428 2641 812 3112 
Q 1197 3584 1925 3584 
z
" transform="scale(0.015625)"/>
       <path id="DejaVuSansMono-6e" d="M 3284 2169 
L 3284 0 
L 2706 0 
L 2706 2169 
Q 2706 2641 2540 2862 
Q 2375 3084 2022 3084 
Q 1619 3084 1401 2798 
Q 1184 2513 1184 1978 
L 1184 0 
L 609 0 
L 609 3500 
L 1184 3500 
L 1184 2975 
Q 1338 3275 1600 3429 
Q 1863 3584 2222 3584 
Q 2756 3584 3020 3232 
Q 3284 2881 3284 2169 
z
" transform="scale(0.015625)"/>
      </defs>
      <use xlink:href="#DejaVuSansMono-49"/>
      <use xlink:href="#DejaVuSansMono-74" x="60.205078"/>
      <use xlink:href="#DejaVuSansMono-65" x="120.410156"/>
      <use xlink:href="#DejaVuSansMono-72" x="180.615234"/>
      <use xlink:href="#DejaVuSansMono-61" x="240.820312"/>
      <use xlink:href="#DejaVuSansMono-74" x="301.025391"/>
      <use xlink:href="#DejaVuSansMono-69" x="361.230469"/>
      <use xlink:href="#DejaVuSansMono-6f" x="421.435547"/>
      <use xlink:href="#DejaVuSansMono-6e" x="481.640625"/>
     </g>
    </g>
   </g>
   <g id="matplotlib.axis_2">
    <g id="ytick_1">
     <g id="line2d_4">
      <defs>
       <path id="m86f6d8bd60" d="M 0 0 
L -3.5 0 
" style="stroke: #000000; stroke-width: 0.8"/>
      </defs>
      <g>
       <use xlink:href="#m86f6d8bd60" x="81.62" y="203.844545" style="stroke: #000000; stroke-width: 0.8"/>
      </g>
     </g>
     <g id="text_5">
      <!-- 0.06 -->
      <g transform="translate(32.181875 210.348374) scale(0.17 -0.17)">
       <defs>
        <path id="DejaVuSansMono-2e" d="M 1528 953 
L 2316 953 
L 2316 0 
L 1528 0 
L 1528 953 
z
" transform="scale(0.015625)"/>
        <path id="DejaVuSansMono-36" d="M 3097 4563 
L 3097 3981 
Q 2900 4097 2678 4158 
Q 2456 4219 2216 4219 
Q 1616 4219 1306 3767 
Q 997 3316 997 2438 
Q 1147 2750 1412 2917 
Q 1678 3084 2022 3084 
Q 2697 3084 3067 2670 
Q 3438 2256 3438 1497 
Q 3438 741 3056 325 
Q 2675 -91 1984 -91 
Q 1172 -91 794 492 
Q 416 1075 416 2328 
Q 416 3509 870 4129 
Q 1325 4750 2188 4750 
Q 2419 4750 2650 4701 
Q 2881 4653 3097 4563 
z
M 1972 2591 
Q 1569 2591 1337 2300 
Q 1106 2009 1106 1497 
Q 1106 984 1337 693 
Q 1569 403 1972 403 
Q 2391 403 2603 679 
Q 2816 956 2816 1497 
Q 2816 2041 2603 2316 
Q 2391 2591 1972 2591 
z
" transform="scale(0.015625)"/>
       </defs>
       <use xlink:href="#DejaVuSansMono-30"/>
       <use xlink:href="#DejaVuSansMono-2e" x="60.205078"/>
       <use xlink:href="#DejaVuSansMono-30" x="120.410156"/>
       <use xlink:href="#DejaVuSansMono-36" x="180.615234"/>
      </g>
     </g>
    </g>
    <g id="ytick_2">
     <g id="line2d_5">
      <g>
       <use xlink:href="#m86f6d8bd60" x="81.62" y="159.526364" style="stroke: #000000; stroke-width: 0.8"/>
      </g>
     </g>
     <g id="text_6">
      <!-- 0.09 -->
      <g transform="translate(32.181875 166.030192) scale(0.17 -0.17)">
       <defs>
        <path id="DejaVuSansMono-39" d="M 1863 2069 
Q 2266 2069 2495 2359 
Q 2725 2650 2725 3163 
Q 2725 3675 2495 3965 
Q 2266 4256 1863 4256 
Q 1444 4256 1231 3979 
Q 1019 3703 1019 3163 
Q 1019 2619 1230 2344 
Q 1441 2069 1863 2069 
z
M 738 97 
L 738 678 
Q 934 563 1156 502 
Q 1378 441 1619 441 
Q 2219 441 2526 892 
Q 2834 1344 2834 2222 
Q 2688 1909 2422 1742 
Q 2156 1575 1813 1575 
Q 1138 1575 767 1990 
Q 397 2406 397 3169 
Q 397 3922 776 4336 
Q 1156 4750 1850 4750 
Q 2663 4750 3041 4165 
Q 3419 3581 3419 2328 
Q 3419 1150 2964 529 
Q 2509 -91 1644 -91 
Q 1416 -91 1184 -42 
Q 953 6 738 97 
z
" transform="scale(0.015625)"/>
       </defs>
       <use xlink:href="#DejaVuSansMono-30"/>
       <use xlink:href="#DejaVuSansMono-2e" x="60.205078"/>
       <use xlink:href="#DejaVuSansMono-30" x="120.410156"/>
       <use xlink:href="#DejaVuSansMono-39" x="180.615234"/>
      </g>
     </g>
    </g>
    <g id="ytick_3">
     <g id="line2d_6">
      <g>
       <use xlink:href="#m86f6d8bd60" x="81.62" y="115.208182" style="stroke: #000000; stroke-width: 0.8"/>
      </g>
     </g>
     <g id="text_7">
      <!-- 0.12 -->
      <g transform="translate(32.181875 121.71201) scale(0.17 -0.17)">
       <use xlink:href="#DejaVuSansMono-30"/>
       <use xlink:href="#DejaVuSansMono-2e" x="60.205078"/>
       <use xlink:href="#DejaVuSansMono-31" x="120.410156"/>
       <use xlink:href="#DejaVuSansMono-32" x="180.615234"/>
      </g>
     </g>
    </g>
    <g id="ytick_4">
     <g id="line2d_7">
      <g>
       <use xlink:href="#m86f6d8bd60" x="81.62" y="70.89" style="stroke: #000000; stroke-width: 0.8"/>
      </g>
     </g>
     <g id="text_8">
      <!-- 0.15 -->
      <g transform="translate(32.181875 77.393828) scale(0.17 -0.17)">
       <defs>
        <path id="DejaVuSansMono-35" d="M 647 4666 
L 3009 4666 
L 3009 4134 
L 1222 4134 
L 1222 2988 
Q 1356 3038 1492 3061 
Q 1628 3084 1766 3084 
Q 2491 3084 2916 2656 
Q 3341 2228 3341 1497 
Q 3341 759 2895 334 
Q 2450 -91 1678 -91 
Q 1306 -91 998 -41 
Q 691 9 447 109 
L 447 750 
Q 734 594 1025 517 
Q 1316 441 1619 441 
Q 2141 441 2423 716 
Q 2706 991 2706 1497 
Q 2706 1997 2414 2275 
Q 2122 2553 1600 2553 
Q 1347 2553 1106 2495 
Q 866 2438 647 2322 
L 647 4666 
z
" transform="scale(0.015625)"/>
       </defs>
       <use xlink:href="#DejaVuSansMono-30"/>
       <use xlink:href="#DejaVuSansMono-2e" x="60.205078"/>
       <use xlink:href="#DejaVuSansMono-31" x="120.410156"/>
       <use xlink:href="#DejaVuSansMono-35" x="180.615234"/>
      </g>
     </g>
    </g>
    <g id="text_9">
     <!-- Harmful Rate -->
     <g transform="translate(24.646406 197.297188) rotate(-90) scale(0.17 -0.17)">
      <defs>
       <path id="DejaVuSansMono-48" d="M 428 4666 
L 1063 4666 
L 1063 2753 
L 2791 2753 
L 2791 4666 
L 3425 4666 
L 3425 0 
L 2791 0 
L 2791 2222 
L 1063 2222 
L 1063 0 
L 428 0 
L 428 4666 
z
" transform="scale(0.015625)"/>
       <path id="DejaVuSansMono-6d" d="M 2113 3144 
Q 2219 3369 2383 3476 
Q 2547 3584 2778 3584 
Q 3200 3584 3373 3257 
Q 3547 2931 3547 2028 
L 3547 0 
L 3022 0 
L 3022 2003 
Q 3022 2744 2939 2923 
Q 2856 3103 2638 3103 
Q 2388 3103 2295 2911 
Q 2203 2719 2203 2003 
L 2203 0 
L 1678 0 
L 1678 2003 
Q 1678 2753 1589 2928 
Q 1500 3103 1269 3103 
Q 1041 3103 952 2911 
Q 863 2719 863 2003 
L 863 0 
L 341 0 
L 341 3500 
L 863 3500 
L 863 3200 
Q 966 3388 1120 3486 
Q 1275 3584 1472 3584 
Q 1709 3584 1867 3475 
Q 2025 3366 2113 3144 
z
" transform="scale(0.015625)"/>
       <path id="DejaVuSansMono-66" d="M 3322 4863 
L 3322 4384 
L 2669 4384 
Q 2359 4384 2239 4257 
Q 2119 4131 2119 3809 
L 2119 3500 
L 3322 3500 
L 3322 3053 
L 2119 3053 
L 2119 0 
L 1544 0 
L 1544 3053 
L 609 3053 
L 609 3500 
L 1544 3500 
L 1544 3744 
Q 1544 4319 1808 4591 
Q 2072 4863 2631 4863 
L 3322 4863 
z
" transform="scale(0.015625)"/>
       <path id="DejaVuSansMono-75" d="M 609 1325 
L 609 3494 
L 1184 3494 
L 1184 1325 
Q 1184 853 1351 631 
Q 1519 409 1869 409 
Q 2275 409 2490 695 
Q 2706 981 2706 1516 
L 2706 3494 
L 3284 3494 
L 3284 0 
L 2706 0 
L 2706 525 
Q 2553 222 2289 65 
Q 2025 -91 1672 -91 
Q 1134 -91 871 261 
Q 609 613 609 1325 
z
" transform="scale(0.015625)"/>
       <path id="DejaVuSansMono-6c" d="M 1997 1269 
Q 1997 881 2139 684 
Q 2281 488 2559 488 
L 3231 488 
L 3231 0 
L 2503 0 
Q 1988 0 1705 331 
Q 1422 663 1422 1269 
L 1422 4447 
L 500 4447 
L 500 4897 
L 1997 4897 
L 1997 1269 
z
" transform="scale(0.015625)"/>
       <path id="DejaVuSansMono-20" transform="scale(0.015625)"/>
       <path id="DejaVuSansMono-52" d="M 2375 2203 
Q 2619 2141 2791 1967 
Q 2963 1794 3219 1275 
L 3853 0 
L 3175 0 
L 2619 1178 
Q 2378 1681 2186 1826 
Q 1994 1972 1684 1972 
L 1081 1972 
L 1081 0 
L 447 0 
L 447 4666 
L 1747 4666 
Q 2516 4666 2925 4319 
Q 3334 3972 3334 3316 
Q 3334 2853 3082 2561 
Q 2831 2269 2375 2203 
z
M 1081 4147 
L 1081 2491 
L 1772 2491 
Q 2225 2491 2447 2694 
Q 2669 2897 2669 3316 
Q 2669 3719 2433 3933 
Q 2197 4147 1747 4147 
L 1081 4147 
z
" transform="scale(0.015625)"/>
      </defs>
      <use xlink:href="#DejaVuSansMono-48"/>
      <use xlink:href="#DejaVuSansMono-61" x="60.205078"/>
      <use xlink:href="#DejaVuSansMono-72" x="120.410156"/>
      <use xlink:href="#DejaVuSansMono-6d" x="180.615234"/>
      <use xlink:href="#DejaVuSansMono-66" x="240.820312"/>
      <use xlink:href="#DejaVuSansMono-75" x="301.025391"/>
      <use xlink:href="#DejaVuSansMono-6c" x="361.230469"/>
      <use xlink:href="#DejaVuSansMono-20" x="421.435547"/>
      <use xlink:href="#DejaVuSansMono-52" x="481.640625"/>
      <use xlink:href="#DejaVuSansMono-61" x="541.845703"/>
      <use xlink:href="#DejaVuSansMono-74" x="602.050781"/>
      <use xlink:href="#DejaVuSansMono-65" x="662.255859"/>
     </g>
    </g>
   </g>
   <g id="line2d_8">
    <path d="M 90.51 50.208182 
L 179.41 97.480909 
L 268.31 105.359697 
" clip-path="url(#p6480d4975b)" style="fill: none; stroke: #0072b2; stroke-width: 5; stroke-linecap: square"/>
    <defs>
     <path id="m3b1bfb1719" d="M -5 5 
L 5 5 
L 5 -5 
L -5 -5 
z
" style="stroke: #0072b2; stroke-linejoin: miter"/>
    </defs>
    <g clip-path="url(#p6480d4975b)">
     <use xlink:href="#m3b1bfb1719" x="90.51" y="50.208182" style="fill: #0072b2; stroke: #0072b2; stroke-linejoin: miter"/>
     <use xlink:href="#m3b1bfb1719" x="179.41" y="97.480909" style="fill: #0072b2; stroke: #0072b2; stroke-linejoin: miter"/>
     <use xlink:href="#m3b1bfb1719" x="268.31" y="105.359697" style="fill: #0072b2; stroke: #0072b2; stroke-linejoin: miter"/>
    </g>
   </g>
   <g id="line2d_9">
    <path d="M 90.51 119.147576 
L 179.41 119.147576 
L 268.31 119.147576 
" clip-path="url(#p6480d4975b)" style="fill: none; stroke-dasharray: 18.5,8; stroke-dashoffset: 0; stroke: #009e73; stroke-width: 5"/>
   </g>
   <g id="line2d_10">
    <path d="M 90.51 65.965758 
L 179.41 65.965758 
L 268.31 65.965758 
" clip-path="url(#p6480d4975b)" style="fill: none; stroke-dasharray: 32,8,5,8; stroke-dashoffset: 0; stroke: #d55e00; stroke-width: 5"/>
   </g>
   <g id="line2d_11">
    <path d="M 90.51 221.571818 
L 179.41 221.571818 
L 268.31 221.571818 
" clip-path="url(#p6480d4975b)" style="fill: none; stroke-dasharray: 5,8.25; stroke-dashoffset: 0; stroke: #cc79a7; stroke-width: 5"/>
   </g>
   <g id="line2d_12">
    <path d="M 90.51 195.965758 
L 179.41 195.965758 
L 268.31 195.965758 
" clip-path="url(#p6480d4975b)" style="fill: none; stroke-dasharray: 5,8.25; stroke-dashoffset: 0; stroke: #f0e442; stroke-width: 5"/>
   </g>
   <g id="patch_3">
    <path d="M 81.62 230.14 
L 81.62 41.64 
" style="fill: none; stroke: #000000; stroke-width: 0.8; stroke-linejoin: miter; stroke-linecap: square"/>
   </g>
   <g id="patch_4">
    <path d="M 277.2 230.14 
L 277.2 41.64 
" style="fill: none; stroke: #000000; stroke-width: 0.8; stroke-linejoin: miter; stroke-linecap: square"/>
   </g>
   <g id="patch_5">
    <path d="M 81.62 230.14 
L 277.2 230.14 
" style="fill: none; stroke: #000000; stroke-width: 0.8; stroke-linejoin: miter; stroke-linecap: square"/>
   </g>
   <g id="patch_6">
    <path d="M 81.62 41.64 
L 277.2 41.64 
" style="fill: none; stroke: #000000; stroke-width: 0.8; stroke-linejoin: miter; stroke-linecap: square"/>
   </g>
   <g id="text_10">
    <!-- llama2-7b -->
    <g transform="translate(125.227187 26.64) scale(0.2 -0.2)">
     <defs>
      <path id="DejaVuSansMono-Bold-6c" d="M 1209 1459 
L 1209 4159 
L 281 4159 
L 281 4863 
L 2125 4863 
L 2125 1459 
Q 2125 1047 2253 875 
Q 2381 703 2688 703 
L 3419 703 
L 3419 0 
L 2431 0 
Q 1778 0 1493 337 
Q 1209 675 1209 1459 
z
" transform="scale(0.015625)"/>
      <path id="DejaVuSansMono-Bold-61" d="M 2188 1644 
Q 1675 1644 1472 1512 
Q 1269 1381 1269 1063 
Q 1269 825 1409 684 
Q 1550 544 1791 544 
Q 2153 544 2353 817 
Q 2553 1091 2553 1581 
L 2553 1644 
L 2188 1644 
z
M 3463 1997 
L 3463 0 
L 2553 0 
L 2553 391 
Q 2388 159 2128 34 
Q 1869 -91 1556 -91 
Q 959 -91 626 225 
Q 294 541 294 1106 
Q 294 1719 691 2011 
Q 1088 2303 1919 2303 
L 2553 2303 
L 2553 2456 
Q 2553 2678 2392 2792 
Q 2231 2906 1919 2906 
Q 1591 2906 1283 2823 
Q 975 2741 641 2559 
L 641 3341 
Q 944 3466 1256 3525 
Q 1569 3584 1919 3584 
Q 2772 3584 3117 3237 
Q 3463 2891 3463 1997 
z
" transform="scale(0.015625)"/>
      <path id="DejaVuSansMono-Bold-6d" d="M 2156 3150 
Q 2259 3372 2418 3478 
Q 2578 3584 2809 3584 
Q 3263 3584 3436 3271 
Q 3609 2959 3609 1972 
L 3609 0 
L 2859 0 
L 2859 2247 
Q 2859 2638 2800 2769 
Q 2741 2900 2584 2900 
Q 2428 2900 2365 2765 
Q 2303 2631 2303 2247 
L 2303 0 
L 1563 0 
L 1563 2247 
Q 1563 2631 1500 2765 
Q 1438 2900 1281 2900 
Q 1125 2900 1065 2769 
Q 1006 2638 1006 2247 
L 1006 0 
L 256 0 
L 256 3500 
L 922 3500 
L 922 3138 
Q 1000 3344 1172 3464 
Q 1344 3584 1556 3584 
Q 1769 3584 1944 3457 
Q 2119 3331 2156 3150 
z
" transform="scale(0.015625)"/>
      <path id="DejaVuSansMono-Bold-32" d="M 1356 813 
L 3322 813 
L 3322 0 
L 359 0 
L 359 788 
L 859 1319 
Q 1750 2266 1941 2484 
Q 2175 2753 2278 2961 
Q 2381 3169 2381 3372 
Q 2381 3684 2192 3854 
Q 2003 4025 1656 4025 
Q 1409 4025 1101 3926 
Q 794 3828 459 3641 
L 459 4500 
Q 794 4622 1114 4686 
Q 1434 4750 1728 4750 
Q 2469 4750 2892 4404 
Q 3316 4059 3316 3463 
Q 3316 3188 3223 2947 
Q 3131 2706 2906 2413 
Q 2741 2200 1997 1456 
Q 1594 1053 1356 813 
z
" transform="scale(0.015625)"/>
      <path id="DejaVuSansMono-Bold-2d" d="M 941 2297 
L 2913 2297 
L 2913 1388 
L 941 1388 
L 941 2297 
z
" transform="scale(0.015625)"/>
      <path id="DejaVuSansMono-Bold-37" d="M 422 4666 
L 3372 4666 
L 3372 4013 
L 1791 0 
L 850 0 
L 2369 3853 
L 422 3853 
L 422 4666 
z
" transform="scale(0.015625)"/>
      <path id="DejaVuSansMono-Bold-62" d="M 2656 1741 
Q 2656 2247 2487 2534 
Q 2319 2822 2022 2822 
Q 1725 2822 1553 2534 
Q 1381 2247 1381 1741 
Q 1381 1234 1553 946 
Q 1725 659 2022 659 
Q 2319 659 2487 946 
Q 2656 1234 2656 1741 
z
M 1381 3003 
Q 1550 3294 1773 3439 
Q 1997 3584 2278 3584 
Q 2900 3584 3236 3109 
Q 3572 2634 3572 1747 
Q 3572 872 3240 390 
Q 2909 -91 2309 -91 
Q 1994 -91 1759 62 
Q 1525 216 1381 519 
L 1381 0 
L 469 0 
L 469 4863 
L 1381 4863 
L 1381 3003 
z
" transform="scale(0.015625)"/>
     </defs>
     <use xlink:href="#DejaVuSansMono-Bold-6c"/>
     <use xlink:href="#DejaVuSansMono-Bold-6c" x="60.205078"/>
     <use xlink:href="#DejaVuSansMono-Bold-61" x="120.410156"/>
     <use xlink:href="#DejaVuSansMono-Bold-6d" x="180.615234"/>
     <use xlink:href="#DejaVuSansMono-Bold-61" x="240.820312"/>
     <use xlink:href="#DejaVuSansMono-Bold-32" x="301.025391"/>
     <use xlink:href="#DejaVuSansMono-Bold-2d" x="361.230469"/>
     <use xlink:href="#DejaVuSansMono-Bold-37" x="421.435547"/>
     <use xlink:href="#DejaVuSansMono-Bold-62" x="481.640625"/>
    </g>
   </g>
  </g>
  <g id="legend_1">
   <g id="patch_7">
    <path d="M -8.47625 365.9 
L 325.27625 365.9 
Q 328.67625 365.9 328.67625 362.5 
L 328.67625 289.070625 
Q 328.67625 285.670625 325.27625 285.670625 
L -8.47625 285.670625 
Q -11.87625 285.670625 -11.87625 289.070625 
L -11.87625 362.5 
Q -11.87625 365.9 -8.47625 365.9 
z
" style="fill: #ffffff; stroke: #cccccc; stroke-linejoin: miter"/>
   </g>
   <g id="line2d_13">
    <path style="fill: none; stroke: #0072b2; stroke-width: 5; stroke-linecap: square"/>
    <g>
     <use xlink:href="#m3b1bfb1719" x="20.42375" y="299.528281" style="fill: #0072b2; stroke: #0072b2; stroke-linejoin: miter"/>
    </g>
   </g>
   <g id="text_11">
    <!-- RASA-1 -->
    <g transform="translate(59.52375 305.478281) scale(0.17 -0.17)">
     <defs>
      <path id="DejaVuSansMono-41" d="M 1925 4109 
L 1259 1722 
L 2591 1722 
L 1925 4109 
z
M 1544 4666 
L 2309 4666 
L 3738 0 
L 3084 0 
L 2741 1216 
L 1106 1216 
L 769 0 
L 116 0 
L 1544 4666 
z
" transform="scale(0.015625)"/>
      <path id="DejaVuSansMono-53" d="M 3163 4506 
L 3163 3866 
Q 2875 4050 2586 4144 
Q 2297 4238 2003 4238 
Q 1556 4238 1297 4030 
Q 1038 3822 1038 3469 
Q 1038 3159 1208 2996 
Q 1378 2834 1844 2725 
L 2175 2650 
Q 2831 2497 3131 2169 
Q 3431 1841 3431 1275 
Q 3431 609 3018 259 
Q 2606 -91 1819 -91 
Q 1491 -91 1159 -20 
Q 828 50 494 191 
L 494 863 
Q 853 634 1173 528 
Q 1494 422 1819 422 
Q 2297 422 2562 636 
Q 2828 850 2828 1234 
Q 2828 1584 2645 1768 
Q 2463 1953 2009 2053 
L 1672 2131 
Q 1022 2278 728 2575 
Q 434 2872 434 3372 
Q 434 3997 854 4373 
Q 1275 4750 1972 4750 
Q 2241 4750 2537 4689 
Q 2834 4628 3163 4506 
z
" transform="scale(0.015625)"/>
      <path id="DejaVuSansMono-2d" d="M 1113 2009 
L 2741 2009 
L 2741 1497 
L 1113 1497 
L 1113 2009 
z
" transform="scale(0.015625)"/>
     </defs>
     <use xlink:href="#DejaVuSansMono-52"/>
     <use xlink:href="#DejaVuSansMono-41" x="60.205078"/>
     <use xlink:href="#DejaVuSansMono-53" x="120.410156"/>
     <use xlink:href="#DejaVuSansMono-41" x="180.615234"/>
     <use xlink:href="#DejaVuSansMono-2d" x="240.820312"/>
     <use xlink:href="#DejaVuSansMono-31" x="301.025391"/>
    </g>
   </g>
   <g id="line2d_14">
    <path style="fill: none; stroke-dasharray: 18.5,8; stroke-dashoffset: 0; stroke: #009e73; stroke-width: 5"/>
   </g>
   <g id="text_12">
    <!-- RASA-0 -->
    <g transform="translate(59.52375 330.521406) scale(0.17 -0.17)">
     <use xlink:href="#DejaVuSansMono-52"/>
     <use xlink:href="#DejaVuSansMono-41" x="60.205078"/>
     <use xlink:href="#DejaVuSansMono-53" x="120.410156"/>
     <use xlink:href="#DejaVuSansMono-41" x="180.615234"/>
     <use xlink:href="#DejaVuSansMono-2d" x="240.820312"/>
     <use xlink:href="#DejaVuSansMono-30" x="301.025391"/>
    </g>
   </g>
   <g id="line2d_15">
    <path style="fill: none; stroke-dasharray: 32,8,5,8; stroke-dashoffset: 0; stroke: #d55e00; stroke-width: 5"/>
   </g>
   <g id="text_13">
    <!-- SFT -->
    <g transform="translate(59.52375 355.564531) scale(0.17 -0.17)">
     <defs>
      <path id="DejaVuSansMono-46" d="M 728 4666 
L 3475 4666 
L 3475 4134 
L 1363 4134 
L 1363 2759 
L 3278 2759 
L 3278 2228 
L 1363 2228 
L 1363 0 
L 728 0 
L 728 4666 
z
" transform="scale(0.015625)"/>
      <path id="DejaVuSansMono-54" d="M 147 4666 
L 3706 4666 
L 3706 4134 
L 2247 4134 
L 2247 0 
L 1613 0 
L 1613 4134 
L 147 4134 
L 147 4666 
z
" transform="scale(0.015625)"/>
     </defs>
     <use xlink:href="#DejaVuSansMono-53"/>
     <use xlink:href="#DejaVuSansMono-46" x="60.205078"/>
     <use xlink:href="#DejaVuSansMono-54" x="120.410156"/>
    </g>
   </g>
   <g id="line2d_16">
    <path style="fill: none; stroke-dasharray: 5,8.25; stroke-dashoffset: 0; stroke: #cc79a7; stroke-width: 5"/>
   </g>
   <g id="text_14">
    <!-- ICL-kNN -->
    <g transform="translate(219.530938 305.478281) scale(0.17 -0.17)">
     <defs>
      <path id="DejaVuSansMono-43" d="M 3353 166 
Q 3113 38 2859 -26 
Q 2606 -91 2322 -91 
Q 1425 -91 929 543 
Q 434 1178 434 2328 
Q 434 3472 932 4111 
Q 1431 4750 2322 4750 
Q 2606 4750 2859 4686 
Q 3113 4622 3353 4494 
L 3353 3847 
Q 3122 4038 2856 4138 
Q 2591 4238 2322 4238 
Q 1706 4238 1400 3763 
Q 1094 3288 1094 2328 
Q 1094 1372 1400 897 
Q 1706 422 2322 422 
Q 2597 422 2861 522 
Q 3125 622 3353 813 
L 3353 166 
z
" transform="scale(0.015625)"/>
      <path id="DejaVuSansMono-4c" d="M 672 4666 
L 1306 4666 
L 1306 531 
L 3559 531 
L 3559 0 
L 672 0 
L 672 4666 
z
" transform="scale(0.015625)"/>
      <path id="DejaVuSansMono-6b" d="M 738 4863 
L 1331 4863 
L 1331 2047 
L 2841 3500 
L 3541 3500 
L 2163 2181 
L 3756 0 
L 3053 0 
L 1759 1806 
L 1331 1403 
L 1331 0 
L 738 0 
L 738 4863 
z
" transform="scale(0.015625)"/>
      <path id="DejaVuSansMono-4e" d="M 434 4666 
L 1234 4666 
L 2809 825 
L 2809 4666 
L 3419 4666 
L 3419 0 
L 2619 0 
L 1044 3841 
L 1044 0 
L 434 0 
L 434 4666 
z
" transform="scale(0.015625)"/>
     </defs>
     <use xlink:href="#DejaVuSansMono-49"/>
     <use xlink:href="#DejaVuSansMono-43" x="60.205078"/>
     <use xlink:href="#DejaVuSansMono-4c" x="120.410156"/>
     <use xlink:href="#DejaVuSansMono-2d" x="180.615234"/>
     <use xlink:href="#DejaVuSansMono-6b" x="240.820312"/>
     <use xlink:href="#DejaVuSansMono-4e" x="301.025391"/>
     <use xlink:href="#DejaVuSansMono-4e" x="361.230469"/>
    </g>
   </g>
   <g id="line2d_17">
    <path style="fill: none; stroke-dasharray: 5,8.25; stroke-dashoffset: 0; stroke: #f0e442; stroke-width: 5"/>
   </g>
   <g id="text_15">
    <!-- ICL-Random -->
    <g transform="translate(219.530938 330.521406) scale(0.17 -0.17)">
     <defs>
      <path id="DejaVuSansMono-64" d="M 2681 3053 
L 2681 4863 
L 3256 4863 
L 3256 0 
L 2681 0 
L 2681 441 
Q 2538 181 2298 45 
Q 2059 -91 1747 -91 
Q 1113 -91 748 401 
Q 384 894 384 1759 
Q 384 2613 750 3098 
Q 1116 3584 1747 3584 
Q 2063 3584 2303 3448 
Q 2544 3313 2681 3053 
z
M 991 1747 
Q 991 1078 1203 737 
Q 1416 397 1831 397 
Q 2247 397 2464 740 
Q 2681 1084 2681 1747 
Q 2681 2413 2464 2755 
Q 2247 3097 1831 3097 
Q 1416 3097 1203 2756 
Q 991 2416 991 1747 
z
" transform="scale(0.015625)"/>
     </defs>
     <use xlink:href="#DejaVuSansMono-49"/>
     <use xlink:href="#DejaVuSansMono-43" x="60.205078"/>
     <use xlink:href="#DejaVuSansMono-4c" x="120.410156"/>
     <use xlink:href="#DejaVuSansMono-2d" x="180.615234"/>
     <use xlink:href="#DejaVuSansMono-52" x="240.820312"/>
     <use xlink:href="#DejaVuSansMono-61" x="301.025391"/>
     <use xlink:href="#DejaVuSansMono-6e" x="361.230469"/>
     <use xlink:href="#DejaVuSansMono-64" x="421.435547"/>
     <use xlink:href="#DejaVuSansMono-6f" x="481.640625"/>
     <use xlink:href="#DejaVuSansMono-6d" x="541.845703"/>
    </g>
   </g>
  </g>
 </g>
 <defs>
  <clipPath id="p6480d4975b">
   <rect x="81.62" y="41.64" width="195.58" height="188.5"/>
  </clipPath>
 </defs>
</svg>
