<?xml version="1.0" encoding="utf-8" standalone="no"?>
<!DOCTYPE svg PUBLIC "-//W3C//DTD SVG 1.1//EN"
  "http://www.w3.org/Graphics/SVG/1.1/DTD/svg11.dtd">
<svg xmlns:xlink="http://www.w3.org/1999/xlink" width="288pt" height="288pt" viewBox="0 0 288 288" xmlns="http://www.w3.org/2000/svg" version="1.1">
 <metadata>
  <rdf:RDF xmlns:dc="http://purl.org/dc/elements/1.1/" xmlns:cc="http://creativecommons.org/ns#" xmlns:rdf="http://www.w3.org/1999/02/22-rdf-syntax-ns#">
   <cc:Work>
    <dc:type rdf:resource="http://purl.org/dc/dcmitype/StillImage"/>
    <dc:date>2023-11-29T07:41:41.497886</dc:date>
    <dc:format>image/svg+xml</dc:format>
    <dc:creator>
     <cc:Agent>
      <dc:title>Matplotlib v3.8.1, https://matplotlib.org/</dc:title>
     </cc:Agent>
    </dc:creator>
   </cc:Work>
  </rdf:RDF>
 </metadata>
 <defs>
  <style type="text/css">*{stroke-linejoin: round; stroke-linecap: butt}</style>
 </defs>
 <g id="figure_1">
  <g id="patch_1">
   <path d="M 0 288 
L 288 288 
L 288 0 
L 0 0 
z
" style="fill: #ffffff"/>
  </g>
  <g id="axes_1">
   <g id="patch_2">
    <path d="M 81.62 230.14 
L 277.2 230.14 
L 277.2 41.64 
L 81.62 41.64 
z
" style="fill: #ffffff"/>
   </g>
   <g id="matplotlib.axis_1">
    <g id="xtick_1">
     <g id="line2d_1">
      <defs>
       <path id="m385df03a4c" d="M 0 0 
L 0 3.5 
" style="stroke: #000000; stroke-width: 0.8"/>
      </defs>
      <g>
       <use xlink:href="#m385df03a4c" x="90.51" y="230.14" style="stroke: #000000; stroke-width: 0.8"/>
      </g>
     </g>
     <g id="text_1">
      <!-- 0 -->
      <g transform="translate(85.392734 251.647656) scale(0.17 -0.17)">
       <defs>
        <path id="DejaVuSansMono-30" d="M 1509 2344 
Q 1509 2516 1629 2641 
Q 1750 2766 1919 2766 
Q 2094 2766 2219 2641 
Q 2344 2516 2344 2344 
Q 2344 2169 2220 2047 
Q 2097 1925 1919 1925 
Q 1744 1925 1626 2044 
Q 1509 2163 1509 2344 
z
M 1925 4250 
Q 1484 4250 1267 3775 
Q 1050 3300 1050 2328 
Q 1050 1359 1267 884 
Q 1484 409 1925 409 
Q 2369 409 2586 884 
Q 2803 1359 2803 2328 
Q 2803 3300 2586 3775 
Q 2369 4250 1925 4250 
z
M 1925 4750 
Q 2672 4750 3055 4137 
Q 3438 3525 3438 2328 
Q 3438 1134 3055 521 
Q 2672 -91 1925 -91 
Q 1178 -91 797 521 
Q 416 1134 416 2328 
Q 416 3525 797 4137 
Q 1178 4750 1925 4750 
z
" transform="scale(0.015625)"/>
       </defs>
       <use xlink:href="#DejaVuSansMono-30"/>
      </g>
     </g>
    </g>
    <g id="xtick_2">
     <g id="line2d_2">
      <g>
       <use xlink:href="#m385df03a4c" x="179.41" y="230.14" style="stroke: #000000; stroke-width: 0.8"/>
      </g>
     </g>
     <g id="text_2">
      <!-- 1 -->
      <g transform="translate(174.292734 251.647656) scale(0.17 -0.17)">
       <defs>
        <path id="DejaVuSansMono-31" d="M 844 531 
L 1825 531 
L 1825 4097 
L 769 3859 
L 769 4434 
L 1819 4666 
L 2450 4666 
L 2450 531 
L 3419 531 
L 3419 0 
L 844 0 
L 844 531 
z
" transform="scale(0.015625)"/>
       </defs>
       <use xlink:href="#DejaVuSansMono-31"/>
      </g>
     </g>
    </g>
    <g id="xtick_3">
     <g id="line2d_3">
      <g>
       <use xlink:href="#m385df03a4c" x="268.31" y="230.14" style="stroke: #000000; stroke-width: 0.8"/>
      </g>
     </g>
     <g id="text_3">
      <!-- 2 -->
      <g transform="translate(263.192734 251.647656) scale(0.17 -0.17)">
       <defs>
        <path id="DejaVuSansMono-32" d="M 1166 531 
L 3309 531 
L 3309 0 
L 475 0 
L 475 531 
Q 1059 1147 1496 1619 
Q 1934 2091 2100 2284 
Q 2413 2666 2522 2902 
Q 2631 3138 2631 3384 
Q 2631 3775 2401 3997 
Q 2172 4219 1772 4219 
Q 1488 4219 1175 4116 
Q 863 4013 513 3803 
L 513 4441 
Q 834 4594 1145 4672 
Q 1456 4750 1759 4750 
Q 2444 4750 2861 4386 
Q 3278 4022 3278 3431 
Q 3278 3131 3139 2831 
Q 3000 2531 2688 2169 
Q 2513 1966 2180 1606 
Q 1847 1247 1166 531 
z
" transform="scale(0.015625)"/>
       </defs>
       <use xlink:href="#DejaVuSansMono-32"/>
      </g>
     </g>
    </g>
    <g id="text_4">
     <!-- Iteration -->
     <g transform="translate(133.354609 272.190781) scale(0.17 -0.17)">
      <defs>
       <path id="DejaVuSansMono-49" d="M 628 4666 
L 3219 4666 
L 3219 4134 
L 2241 4134 
L 2241 531 
L 3219 531 
L 3219 0 
L 628 0 
L 628 531 
L 1606 531 
L 1606 4134 
L 628 4134 
L 628 4666 
z
" transform="scale(0.015625)"/>
       <path id="DejaVuSansMono-74" d="M 1919 4494 
L 1919 3500 
L 3225 3500 
L 3225 3053 
L 1919 3053 
L 1919 1153 
Q 1919 766 2066 612 
Q 2213 459 2578 459 
L 3225 459 
L 3225 0 
L 2522 0 
Q 1875 0 1609 259 
Q 1344 519 1344 1153 
L 1344 3053 
L 409 3053 
L 409 3500 
L 1344 3500 
L 1344 4494 
L 1919 4494 
z
" transform="scale(0.015625)"/>
       <path id="DejaVuSansMono-65" d="M 3475 1894 
L 3475 1613 
L 984 1613 
L 984 1594 
Q 984 1022 1282 709 
Q 1581 397 2125 397 
Q 2400 397 2700 484 
Q 3000 572 3341 750 
L 3341 178 
Q 3013 44 2708 -23 
Q 2403 -91 2119 -91 
Q 1303 -91 843 398 
Q 384 888 384 1747 
Q 384 2584 834 3084 
Q 1284 3584 2034 3584 
Q 2703 3584 3089 3131 
Q 3475 2678 3475 1894 
z
M 2900 2063 
Q 2888 2569 2661 2833 
Q 2434 3097 2009 3097 
Q 1594 3097 1325 2822 
Q 1056 2547 1006 2059 
L 2900 2063 
z
" transform="scale(0.015625)"/>
       <path id="DejaVuSansMono-72" d="M 3609 2778 
Q 3425 2922 3234 2987 
Q 3044 3053 2816 3053 
Q 2278 3053 1993 2715 
Q 1709 2378 1709 1741 
L 1709 0 
L 1131 0 
L 1131 3500 
L 1709 3500 
L 1709 2816 
Q 1853 3188 2151 3386 
Q 2450 3584 2859 3584 
Q 3072 3584 3256 3531 
Q 3441 3478 3609 3366 
L 3609 2778 
z
" transform="scale(0.015625)"/>
       <path id="DejaVuSansMono-61" d="M 2194 1759 
L 2003 1759 
Q 1500 1759 1245 1582 
Q 991 1406 991 1056 
Q 991 741 1181 566 
Q 1372 391 1709 391 
Q 2184 391 2456 720 
Q 2728 1050 2731 1631 
L 2731 1759 
L 2194 1759 
z
M 3309 1997 
L 3309 0 
L 2731 0 
L 2731 519 
Q 2547 206 2267 57 
Q 1988 -91 1588 -91 
Q 1053 -91 734 211 
Q 416 513 416 1019 
Q 416 1603 808 1906 
Q 1200 2209 1959 2209 
L 2731 2209 
L 2731 2300 
Q 2728 2719 2518 2908 
Q 2309 3097 1850 3097 
Q 1556 3097 1256 3012 
Q 956 2928 672 2766 
L 672 3341 
Q 991 3463 1283 3523 
Q 1575 3584 1850 3584 
Q 2284 3584 2592 3456 
Q 2900 3328 3091 3072 
Q 3209 2916 3259 2686 
Q 3309 2456 3309 1997 
z
" transform="scale(0.015625)"/>
       <path id="DejaVuSansMono-69" d="M 800 3500 
L 2272 3500 
L 2272 447 
L 3413 447 
L 3413 0 
L 556 0 
L 556 447 
L 1697 447 
L 1697 3053 
L 800 3053 
L 800 3500 
z
M 1697 4863 
L 2272 4863 
L 2272 4134 
L 1697 4134 
L 1697 4863 
z
" transform="scale(0.015625)"/>
       <path id="DejaVuSansMono-6f" d="M 1925 3097 
Q 1488 3097 1263 2756 
Q 1038 2416 1038 1747 
Q 1038 1081 1263 739 
Q 1488 397 1925 397 
Q 2366 397 2591 739 
Q 2816 1081 2816 1747 
Q 2816 2416 2591 2756 
Q 2366 3097 1925 3097 
z
M 1925 3584 
Q 2653 3584 3039 3112 
Q 3425 2641 3425 1747 
Q 3425 850 3040 379 
Q 2656 -91 1925 -91 
Q 1197 -91 812 379 
Q 428 850 428 1747 
Q 428 2641 812 3112 
Q 1197 3584 1925 3584 
z
" transform="scale(0.015625)"/>
       <path id="DejaVuSansMono-6e" d="M 3284 2169 
L 3284 0 
L 2706 0 
L 2706 2169 
Q 2706 2641 2540 2862 
Q 2375 3084 2022 3084 
Q 1619 3084 1401 2798 
Q 1184 2513 1184 1978 
L 1184 0 
L 609 0 
L 609 3500 
L 1184 3500 
L 1184 2975 
Q 1338 3275 1600 3429 
Q 1863 3584 2222 3584 
Q 2756 3584 3020 3232 
Q 3284 2881 3284 2169 
z
" transform="scale(0.015625)"/>
      </defs>
      <use xlink:href="#DejaVuSansMono-49"/>
      <use xlink:href="#DejaVuSansMono-74" x="60.205078"/>
      <use xlink:href="#DejaVuSansMono-65" x="120.410156"/>
      <use xlink:href="#DejaVuSansMono-72" x="180.615234"/>
      <use xlink:href="#DejaVuSansMono-61" x="240.820312"/>
      <use xlink:href="#DejaVuSansMono-74" x="301.025391"/>
      <use xlink:href="#DejaVuSansMono-69" x="361.230469"/>
      <use xlink:href="#DejaVuSansMono-6f" x="421.435547"/>
      <use xlink:href="#DejaVuSansMono-6e" x="481.640625"/>
     </g>
    </g>
   </g>
   <g id="matplotlib.axis_2">
    <g id="ytick_1">
     <g id="line2d_4">
      <defs>
       <path id="m6dcb57569e" d="M 0 0 
L -3.5 0 
" style="stroke: #000000; stroke-width: 0.8"/>
      </defs>
      <g>
       <use xlink:href="#m6dcb57569e" x="81.62" y="206.120999" style="stroke: #000000; stroke-width: 0.8"/>
      </g>
     </g>
     <g id="text_5">
      <!-- 0.20 -->
      <g transform="translate(32.181875 212.624827) scale(0.17 -0.17)">
       <defs>
        <path id="DejaVuSansMono-2e" d="M 1528 953 
L 2316 953 
L 2316 0 
L 1528 0 
L 1528 953 
z
" transform="scale(0.015625)"/>
       </defs>
       <use xlink:href="#DejaVuSansMono-30"/>
       <use xlink:href="#DejaVuSansMono-2e" x="60.205078"/>
       <use xlink:href="#DejaVuSansMono-32" x="120.410156"/>
       <use xlink:href="#DejaVuSansMono-30" x="180.615234"/>
      </g>
     </g>
    </g>
    <g id="ytick_2">
     <g id="line2d_5">
      <g>
       <use xlink:href="#m6dcb57569e" x="81.62" y="153.44775" style="stroke: #000000; stroke-width: 0.8"/>
      </g>
     </g>
     <g id="text_6">
      <!-- 0.25 -->
      <g transform="translate(32.181875 159.951578) scale(0.17 -0.17)">
       <defs>
        <path id="DejaVuSansMono-35" d="M 647 4666 
L 3009 4666 
L 3009 4134 
L 1222 4134 
L 1222 2988 
Q 1356 3038 1492 3061 
Q 1628 3084 1766 3084 
Q 2491 3084 2916 2656 
Q 3341 2228 3341 1497 
Q 3341 759 2895 334 
Q 2450 -91 1678 -91 
Q 1306 -91 998 -41 
Q 691 9 447 109 
L 447 750 
Q 734 594 1025 517 
Q 1316 441 1619 441 
Q 2141 441 2423 716 
Q 2706 991 2706 1497 
Q 2706 1997 2414 2275 
Q 2122 2553 1600 2553 
Q 1347 2553 1106 2495 
Q 866 2438 647 2322 
L 647 4666 
z
" transform="scale(0.015625)"/>
       </defs>
       <use xlink:href="#DejaVuSansMono-30"/>
       <use xlink:href="#DejaVuSansMono-2e" x="60.205078"/>
       <use xlink:href="#DejaVuSansMono-32" x="120.410156"/>
       <use xlink:href="#DejaVuSansMono-35" x="180.615234"/>
      </g>
     </g>
    </g>
    <g id="ytick_3">
     <g id="line2d_6">
      <g>
       <use xlink:href="#m6dcb57569e" x="81.62" y="100.774501" style="stroke: #000000; stroke-width: 0.8"/>
      </g>
     </g>
     <g id="text_7">
      <!-- 0.30 -->
      <g transform="translate(32.181875 107.278329) scale(0.17 -0.17)">
       <defs>
        <path id="DejaVuSansMono-33" d="M 2425 2497 
Q 2884 2375 3128 2064 
Q 3372 1753 3372 1288 
Q 3372 644 2939 276 
Q 2506 -91 1741 -91 
Q 1419 -91 1084 -31 
Q 750 28 428 141 
L 428 769 
Q 747 603 1056 522 
Q 1366 441 1672 441 
Q 2191 441 2469 675 
Q 2747 909 2747 1350 
Q 2747 1756 2469 1995 
Q 2191 2234 1716 2234 
L 1234 2234 
L 1234 2753 
L 1716 2753 
Q 2150 2753 2394 2943 
Q 2638 3134 2638 3475 
Q 2638 3834 2411 4026 
Q 2184 4219 1766 4219 
Q 1488 4219 1191 4156 
Q 894 4094 569 3969 
L 569 4550 
Q 947 4650 1242 4700 
Q 1538 4750 1766 4750 
Q 2447 4750 2855 4408 
Q 3263 4066 3263 3500 
Q 3263 3116 3048 2859 
Q 2834 2603 2425 2497 
z
" transform="scale(0.015625)"/>
       </defs>
       <use xlink:href="#DejaVuSansMono-30"/>
       <use xlink:href="#DejaVuSansMono-2e" x="60.205078"/>
       <use xlink:href="#DejaVuSansMono-33" x="120.410156"/>
       <use xlink:href="#DejaVuSansMono-30" x="180.615234"/>
      </g>
     </g>
    </g>
    <g id="ytick_4">
     <g id="line2d_7">
      <g>
       <use xlink:href="#m6dcb57569e" x="81.62" y="48.101252" style="stroke: #000000; stroke-width: 0.8"/>
      </g>
     </g>
     <g id="text_8">
      <!-- 0.35 -->
      <g transform="translate(32.181875 54.60508) scale(0.17 -0.17)">
       <use xlink:href="#DejaVuSansMono-30"/>
       <use xlink:href="#DejaVuSansMono-2e" x="60.205078"/>
       <use xlink:href="#DejaVuSansMono-33" x="120.410156"/>
       <use xlink:href="#DejaVuSansMono-35" x="180.615234"/>
      </g>
     </g>
    </g>
    <g id="text_9">
     <!-- Harmful Rate -->
     <g transform="translate(24.646406 197.297188) rotate(-90) scale(0.17 -0.17)">
      <defs>
       <path id="DejaVuSansMono-48" d="M 428 4666 
L 1063 4666 
L 1063 2753 
L 2791 2753 
L 2791 4666 
L 3425 4666 
L 3425 0 
L 2791 0 
L 2791 2222 
L 1063 2222 
L 1063 0 
L 428 0 
L 428 4666 
z
" transform="scale(0.015625)"/>
       <path id="DejaVuSansMono-6d" d="M 2113 3144 
Q 2219 3369 2383 3476 
Q 2547 3584 2778 3584 
Q 3200 3584 3373 3257 
Q 3547 2931 3547 2028 
L 3547 0 
L 3022 0 
L 3022 2003 
Q 3022 2744 2939 2923 
Q 2856 3103 2638 3103 
Q 2388 3103 2295 2911 
Q 2203 2719 2203 2003 
L 2203 0 
L 1678 0 
L 1678 2003 
Q 1678 2753 1589 2928 
Q 1500 3103 1269 3103 
Q 1041 3103 952 2911 
Q 863 2719 863 2003 
L 863 0 
L 341 0 
L 341 3500 
L 863 3500 
L 863 3200 
Q 966 3388 1120 3486 
Q 1275 3584 1472 3584 
Q 1709 3584 1867 3475 
Q 2025 3366 2113 3144 
z
" transform="scale(0.015625)"/>
       <path id="DejaVuSansMono-66" d="M 3322 4863 
L 3322 4384 
L 2669 4384 
Q 2359 4384 2239 4257 
Q 2119 4131 2119 3809 
L 2119 3500 
L 3322 3500 
L 3322 3053 
L 2119 3053 
L 2119 0 
L 1544 0 
L 1544 3053 
L 609 3053 
L 609 3500 
L 1544 3500 
L 1544 3744 
Q 1544 4319 1808 4591 
Q 2072 4863 2631 4863 
L 3322 4863 
z
" transform="scale(0.015625)"/>
       <path id="DejaVuSansMono-75" d="M 609 1325 
L 609 3494 
L 1184 3494 
L 1184 1325 
Q 1184 853 1351 631 
Q 1519 409 1869 409 
Q 2275 409 2490 695 
Q 2706 981 2706 1516 
L 2706 3494 
L 3284 3494 
L 3284 0 
L 2706 0 
L 2706 525 
Q 2553 222 2289 65 
Q 2025 -91 1672 -91 
Q 1134 -91 871 261 
Q 609 613 609 1325 
z
" transform="scale(0.015625)"/>
       <path id="DejaVuSansMono-6c" d="M 1997 1269 
Q 1997 881 2139 684 
Q 2281 488 2559 488 
L 3231 488 
L 3231 0 
L 2503 0 
Q 1988 0 1705 331 
Q 1422 663 1422 1269 
L 1422 4447 
L 500 4447 
L 500 4897 
L 1997 4897 
L 1997 1269 
z
" transform="scale(0.015625)"/>
       <path id="DejaVuSansMono-20" transform="scale(0.015625)"/>
       <path id="DejaVuSansMono-52" d="M 2375 2203 
Q 2619 2141 2791 1967 
Q 2963 1794 3219 1275 
L 3853 0 
L 3175 0 
L 2619 1178 
Q 2378 1681 2186 1826 
Q 1994 1972 1684 1972 
L 1081 1972 
L 1081 0 
L 447 0 
L 447 4666 
L 1747 4666 
Q 2516 4666 2925 4319 
Q 3334 3972 3334 3316 
Q 3334 2853 3082 2561 
Q 2831 2269 2375 2203 
z
M 1081 4147 
L 1081 2491 
L 1772 2491 
Q 2225 2491 2447 2694 
Q 2669 2897 2669 3316 
Q 2669 3719 2433 3933 
Q 2197 4147 1747 4147 
L 1081 4147 
z
" transform="scale(0.015625)"/>
      </defs>
      <use xlink:href="#DejaVuSansMono-48"/>
      <use xlink:href="#DejaVuSansMono-61" x="60.205078"/>
      <use xlink:href="#DejaVuSansMono-72" x="120.410156"/>
      <use xlink:href="#DejaVuSansMono-6d" x="180.615234"/>
      <use xlink:href="#DejaVuSansMono-66" x="240.820312"/>
      <use xlink:href="#DejaVuSansMono-75" x="301.025391"/>
      <use xlink:href="#DejaVuSansMono-6c" x="361.230469"/>
      <use xlink:href="#DejaVuSansMono-20" x="421.435547"/>
      <use xlink:href="#DejaVuSansMono-52" x="481.640625"/>
      <use xlink:href="#DejaVuSansMono-61" x="541.845703"/>
      <use xlink:href="#DejaVuSansMono-74" x="602.050781"/>
      <use xlink:href="#DejaVuSansMono-65" x="662.255859"/>
     </g>
    </g>
   </g>
   <g id="line2d_8">
    <path d="M 90.51 50.208182 
L 179.41 186.456319 
L 268.31 221.571818 
" clip-path="url(#pd0b8e16f6f)" style="fill: none; stroke: #0072b2; stroke-width: 5; stroke-linecap: square"/>
    <defs>
     <path id="m2038848ad0" d="M -5 5 
L 5 5 
L 5 -5 
L -5 -5 
z
" style="stroke: #0072b2; stroke-linejoin: miter"/>
    </defs>
    <g clip-path="url(#pd0b8e16f6f)">
     <use xlink:href="#m2038848ad0" x="90.51" y="50.208182" style="fill: #0072b2; stroke: #0072b2; stroke-linejoin: miter"/>
     <use xlink:href="#m2038848ad0" x="179.41" y="186.456319" style="fill: #0072b2; stroke: #0072b2; stroke-linejoin: miter"/>
     <use xlink:href="#m2038848ad0" x="268.31" y="221.571818" style="fill: #0072b2; stroke: #0072b2; stroke-linejoin: miter"/>
    </g>
   </g>
   <g id="patch_3">
    <path d="M 81.62 230.14 
L 81.62 41.64 
" style="fill: none; stroke: #000000; stroke-width: 0.8; stroke-linejoin: miter; stroke-linecap: square"/>
   </g>
   <g id="patch_4">
    <path d="M 81.62 230.14 
L 277.2 230.14 
" style="fill: none; stroke: #000000; stroke-width: 0.8; stroke-linejoin: miter; stroke-linecap: square"/>
   </g>
   <g id="text_10">
    <!-- opt-1.3b -->
    <g transform="translate(131.2475 26.64) scale(0.2 -0.2)">
     <defs>
      <path id="DejaVuSansMono-Bold-6f" d="M 1925 2841 
Q 1597 2841 1409 2552 
Q 1222 2263 1222 1747 
Q 1222 1231 1409 942 
Q 1597 653 1925 653 
Q 2256 653 2443 942 
Q 2631 1231 2631 1747 
Q 2631 2263 2443 2552 
Q 2256 2841 1925 2841 
z
M 306 1747 
Q 306 2594 745 3089 
Q 1184 3584 1925 3584 
Q 2669 3584 3108 3089 
Q 3547 2594 3547 1747 
Q 3547 900 3108 404 
Q 2669 -91 1925 -91 
Q 1184 -91 745 404 
Q 306 900 306 1747 
z
" transform="scale(0.015625)"/>
      <path id="DejaVuSansMono-Bold-70" d="M 1381 494 
L 1381 -1331 
L 469 -1331 
L 469 3500 
L 1381 3500 
L 1381 2975 
Q 1525 3278 1759 3431 
Q 1994 3584 2309 3584 
Q 2909 3584 3240 3103 
Q 3572 2622 3572 1747 
Q 3572 859 3236 384 
Q 2900 -91 2278 -91 
Q 1997 -91 1773 54 
Q 1550 200 1381 494 
z
M 2656 1753 
Q 2656 2259 2487 2546 
Q 2319 2834 2022 2834 
Q 1725 2834 1553 2546 
Q 1381 2259 1381 1753 
Q 1381 1247 1553 959 
Q 1725 672 2022 672 
Q 2319 672 2487 959 
Q 2656 1247 2656 1753 
z
" transform="scale(0.015625)"/>
      <path id="DejaVuSansMono-Bold-74" d="M 2156 4494 
L 2156 3500 
L 3353 3500 
L 3353 2797 
L 2156 2797 
L 2156 1141 
Q 2156 906 2270 804 
Q 2384 703 2650 703 
L 3353 703 
L 3353 0 
L 2584 0 
Q 1797 0 1519 251 
Q 1241 503 1241 1184 
L 1241 2797 
L 347 2797 
L 347 3500 
L 1241 3500 
L 1241 4494 
L 2156 4494 
z
" transform="scale(0.015625)"/>
      <path id="DejaVuSansMono-Bold-2d" d="M 941 2297 
L 2913 2297 
L 2913 1388 
L 941 1388 
L 941 2297 
z
" transform="scale(0.015625)"/>
      <path id="DejaVuSansMono-Bold-31" d="M 588 813 
L 1619 813 
L 1619 3841 
L 659 3603 
L 659 4434 
L 1625 4666 
L 2516 4666 
L 2516 813 
L 3547 813 
L 3547 0 
L 588 0 
L 588 813 
z
" transform="scale(0.015625)"/>
      <path id="DejaVuSansMono-Bold-2e" d="M 1403 1147 
L 2444 1147 
L 2444 0 
L 1403 0 
L 1403 1147 
z
" transform="scale(0.015625)"/>
      <path id="DejaVuSansMono-Bold-33" d="M 1716 2088 
L 1222 2088 
L 1222 2900 
L 1716 2900 
Q 2059 2900 2248 3036 
Q 2438 3172 2438 3419 
Q 2438 3678 2248 3823 
Q 2059 3969 1716 3969 
Q 1453 3969 1153 3903 
Q 853 3838 531 3713 
L 531 4550 
Q 853 4647 1165 4698 
Q 1478 4750 1766 4750 
Q 2503 4750 2915 4428 
Q 3328 4106 3328 3541 
Q 3328 3125 3090 2861 
Q 2853 2597 2413 2516 
Q 2913 2428 3175 2117 
Q 3438 1806 3438 1300 
Q 3438 622 3003 265 
Q 2569 -91 1741 -91 
Q 1388 -91 1045 -31 
Q 703 28 391 141 
L 391 997 
Q 684 850 1025 773 
Q 1366 697 1741 697 
Q 2116 697 2334 870 
Q 2553 1044 2553 1338 
Q 2553 1697 2334 1892 
Q 2116 2088 1716 2088 
z
" transform="scale(0.015625)"/>
      <path id="DejaVuSansMono-Bold-62" d="M 2656 1741 
Q 2656 2247 2487 2534 
Q 2319 2822 2022 2822 
Q 1725 2822 1553 2534 
Q 1381 2247 1381 1741 
Q 1381 1234 1553 946 
Q 1725 659 2022 659 
Q 2319 659 2487 946 
Q 2656 1234 2656 1741 
z
M 1381 3003 
Q 1550 3294 1773 3439 
Q 1997 3584 2278 3584 
Q 2900 3584 3236 3109 
Q 3572 2634 3572 1747 
Q 3572 872 3240 390 
Q 2909 -91 2309 -91 
Q 1994 -91 1759 62 
Q 1525 216 1381 519 
L 1381 0 
L 469 0 
L 469 4863 
L 1381 4863 
L 1381 3003 
z
" transform="scale(0.015625)"/>
     </defs>
     <use xlink:href="#DejaVuSansMono-Bold-6f"/>
     <use xlink:href="#DejaVuSansMono-Bold-70" x="60.205078"/>
     <use xlink:href="#DejaVuSansMono-Bold-74" x="120.410156"/>
     <use xlink:href="#DejaVuSansMono-Bold-2d" x="180.615234"/>
     <use xlink:href="#DejaVuSansMono-Bold-31" x="240.820312"/>
     <use xlink:href="#DejaVuSansMono-Bold-2e" x="301.025391"/>
     <use xlink:href="#DejaVuSansMono-Bold-33" x="361.230469"/>
     <use xlink:href="#DejaVuSansMono-Bold-62" x="421.435547"/>
    </g>
   </g>
  </g>
  <g id="legend_1">
   <g id="patch_5">
    <path d="M 91.996406 351.5 
L 224.803594 351.5 
Q 228.203594 351.5 228.203594 348.1 
L 228.203594 324.756875 
Q 228.203594 321.356875 224.803594 321.356875 
L 91.996406 321.356875 
Q 88.596406 321.356875 88.596406 324.756875 
L 88.596406 348.1 
Q 88.596406 351.5 91.996406 351.5 
z
" style="fill: #ffffff; stroke: #cccccc; stroke-linejoin: miter"/>
   </g>
   <g id="line2d_9">
    <path style="fill: none; stroke: #0072b2; stroke-width: 5; stroke-linecap: square"/>
    <g>
     <use xlink:href="#m2038848ad0" x="120.896406" y="335.214531" style="fill: #0072b2; stroke: #0072b2; stroke-linejoin: miter"/>
    </g>
   </g>
   <g id="text_11">
    <!-- RASA-1 -->
    <g transform="translate(159.996406 341.164531) scale(0.17 -0.17)">
     <defs>
      <path id="DejaVuSansMono-41" d="M 1925 4109 
L 1259 1722 
L 2591 1722 
L 1925 4109 
z
M 1544 4666 
L 2309 4666 
L 3738 0 
L 3084 0 
L 2741 1216 
L 1106 1216 
L 769 0 
L 116 0 
L 1544 4666 
z
" transform="scale(0.015625)"/>
      <path id="DejaVuSansMono-53" d="M 3163 4506 
L 3163 3866 
Q 2875 4050 2586 4144 
Q 2297 4238 2003 4238 
Q 1556 4238 1297 4030 
Q 1038 3822 1038 3469 
Q 1038 3159 1208 2996 
Q 1378 2834 1844 2725 
L 2175 2650 
Q 2831 2497 3131 2169 
Q 3431 1841 3431 1275 
Q 3431 609 3018 259 
Q 2606 -91 1819 -91 
Q 1491 -91 1159 -20 
Q 828 50 494 191 
L 494 863 
Q 853 634 1173 528 
Q 1494 422 1819 422 
Q 2297 422 2562 636 
Q 2828 850 2828 1234 
Q 2828 1584 2645 1768 
Q 2463 1953 2009 2053 
L 1672 2131 
Q 1022 2278 728 2575 
Q 434 2872 434 3372 
Q 434 3997 854 4373 
Q 1275 4750 1972 4750 
Q 2241 4750 2537 4689 
Q 2834 4628 3163 4506 
z
" transform="scale(0.015625)"/>
      <path id="DejaVuSansMono-2d" d="M 1113 2009 
L 2741 2009 
L 2741 1497 
L 1113 1497 
L 1113 2009 
z
" transform="scale(0.015625)"/>
     </defs>
     <use xlink:href="#DejaVuSansMono-52"/>
     <use xlink:href="#DejaVuSansMono-41" x="60.205078"/>
     <use xlink:href="#DejaVuSansMono-53" x="120.410156"/>
     <use xlink:href="#DejaVuSansMono-41" x="180.615234"/>
     <use xlink:href="#DejaVuSansMono-2d" x="240.820312"/>
     <use xlink:href="#DejaVuSansMono-31" x="301.025391"/>
    </g>
   </g>
  </g>
 </g>
 <defs>
  <clipPath id="pd0b8e16f6f">
   <rect x="81.62" y="41.64" width="195.58" height="188.5"/>
  </clipPath>
 </defs>
</svg>
